<svg xmlns="http://www.w3.org/2000/svg" xmlns:xlink="http://www.w3.org/1999/xlink"><symbol id="arrow-left" viewBox="0 0 7 12">
<path fill-rule="evenodd" clip-rule="evenodd" d="M6.2928 11.7071C6.68332 11.3166 6.68332 10.6834 6.2928 10.2929L1.99991 6L6.2928 1.70711C6.68332 1.31658 6.68332 0.683417 6.2928 0.292892C5.90228 -0.0976315 5.26911 -0.0976315 4.87859 0.292892L0.585693 4.58579C-0.195354 5.36683 -0.195357 6.63316 0.585693 7.41421L4.87859 11.7071C5.26911 12.0976 5.90228 12.0976 6.2928 11.7071Z"/>
</symbol><symbol id="arrow-right" viewBox="0 0 7 12">
<path fill-rule="evenodd" clip-rule="evenodd" d="M0.292893 11.7071C-0.0976311 11.3166 -0.0976312 10.6834 0.292893 10.2929L4.58579 6L0.292893 1.70711C-0.0976316 1.31658 -0.0976316 0.683417 0.292893 0.292892C0.683417 -0.0976315 1.31658 -0.0976315 1.70711 0.292892L6 4.58579C6.78105 5.36683 6.78105 6.63316 6 7.41421L1.70711 11.7071C1.31658 12.0976 0.683418 12.0976 0.292893 11.7071Z"/>
</symbol><symbol id="burger-menu" viewBox="0 0 18 12">
<path d="M0 1C0 0.447715 0.447715 0 1 0H17C17.5523 0 18 0.447715 18 1V1C18 1.55228 17.5523 2 17 2H1C0.447716 2 0 1.55228 0 1V1Z"/>
<path d="M0 6C0 5.44772 0.447715 5 1 5H17C17.5523 5 18 5.44772 18 6V6C18 6.55228 17.5523 7 17 7H1C0.447716 7 0 6.55228 0 6V6Z"/>
<path d="M0 11C0 10.4477 0.447715 10 1 10H17C17.5523 10 18 10.4477 18 11V11C18 11.5523 17.5523 12 17 12H1C0.447716 12 0 11.5523 0 11V11Z"/>
</symbol><symbol id="carousel-video" viewBox="0 0 48 48">
<path d="M21.5145 29.0913C20.848 29.4912 20 29.0111 20 28.2338V19.7662C20 18.9889 20.848 18.5088 21.5145 18.9087L28.5708 23.1425C29.2182 23.5309 29.2182 24.4691 28.5708 24.8575L21.5145 29.0913Z"/>
<path fill-rule="evenodd" clip-rule="evenodd" d="M11 5.5C10.1716 5.5 9.5 6.17157 9.5 7V9.5H4C3.17157 9.5 2.5 10.1716 2.5 11V37C2.5 37.8284 3.17157 38.5 4 38.5H9.5V41C9.5 41.8284 10.1716 42.5 11 42.5H37C37.8284 42.5 38.5 41.8284 38.5 41V38.5H44C44.8284 38.5 45.5 37.8284 45.5 37V11C45.5 10.1716 44.8284 9.5 44 9.5H38.5V7C38.5 6.17157 37.8284 5.5 37 5.5H11ZM35.5 39.5H12.5V8.5H35.5V39.5ZM42.5 35.5H38.5V12.5H42.5V35.5ZM9.5 35.5V12.5H5.5V35.5H9.5Z"/>

</symbol><symbol id="close" viewBox="0 0 11 10">
<path fill-rule="evenodd" clip-rule="evenodd" d="M8.79289 0.292893C9.18342 -0.0976311 9.81658 -0.0976311 10.2071 0.292893C10.5976 0.683417 10.5976 1.31658 10.2071 1.70711L6.91421 5L10.2071 8.29289C10.5976 8.68342 10.5976 9.31658 10.2071 9.70711C9.81658 10.0976 9.18342 10.0976 8.79289 9.70711L5.5 6.41421L2.20711 9.70711C1.81658 10.0976 1.18342 10.0976 0.792894 9.70711C0.402369 9.31658 0.402369 8.68342 0.792894 8.29289L4.08579 5L0.792893 1.70711C0.402369 1.31658 0.402369 0.683417 0.792893 0.292893C1.18342 -0.0976311 1.81658 -0.0976311 2.20711 0.292893L5.5 3.58579L8.79289 0.292893Z" fill="#3B3B40"/>
</symbol><symbol id="earth" viewBox="0 0 48 48">
<path fill-rule="evenodd" clip-rule="evenodd" d="M2.5 24C2.5 12.1259 12.1259 2.5 24 2.5C35.8741 2.5 45.5 12.1259 45.5 24C45.5 35.8741 35.8741 45.5 24 45.5C12.1259 45.5 2.5 35.8741 2.5 24ZM38.201 35.8574C40.5844 33.006 42.1251 29.4259 42.4401 25.5H33.4785C33.4088 27.9187 33.1717 30.2344 32.7915 32.3743C34.7719 33.2628 36.5933 34.4421 38.201 35.8574ZM36.0938 38.0001C34.8975 36.9656 33.5678 36.0822 32.1337 35.379C31.8195 36.5702 31.4563 37.6825 31.0496 38.6992C30.6193 39.7748 30.1311 40.767 29.5853 41.6419C32.0087 40.8754 34.2162 39.6234 36.0938 38.0001ZM29.9268 31.3277C28.0439 30.7887 26.0554 30.5 23.9998 30.5C21.9443 30.5 19.9559 30.7887 18.0732 31.3276C17.777 29.5181 17.5858 27.5592 17.5228 25.5H30.4772C30.4142 27.5593 30.223 29.5182 29.9268 31.3277ZM18.68 34.276C20.3646 33.7711 22.1503 33.5 23.9998 33.5C25.8493 33.5 27.6352 33.7712 29.32 34.2761C29.0157 35.4844 28.6605 36.5941 28.2641 37.5851C27.5821 39.2901 26.8075 40.5693 26.0241 41.3976C25.2437 42.2228 24.5592 42.5 24 42.5C23.4408 42.5 22.7563 42.2228 21.9759 41.3976C21.1925 40.5693 20.4179 39.2901 19.7359 37.5851C19.3395 36.5941 18.9843 35.4843 18.68 34.276ZM15.2085 32.3741C14.8283 30.2343 14.5912 27.9186 14.5215 25.5H5.55993C5.87493 29.4258 7.41551 33.0058 9.7988 35.8572C11.4065 34.4419 13.228 33.2626 15.2085 32.3741ZM11.906 37.9999C13.1023 36.9655 14.4322 36.082 15.8662 35.3788C16.1805 36.5701 16.5437 37.6825 16.9504 38.6992C17.3807 39.7748 17.8689 40.767 18.4147 41.6419C15.9913 40.8754 13.7836 39.6233 11.906 37.9999ZM33.4785 22.5H42.4401C42.1251 18.5741 40.5844 14.994 38.201 12.1426C36.5933 13.5579 34.7719 14.7372 32.7915 15.6257C33.1717 17.7656 33.4088 20.0813 33.4785 22.5ZM36.0938 9.99993C34.8975 11.0344 33.5678 11.9178 32.1337 12.621C31.8195 11.4298 31.4563 10.3175 31.0496 9.30078C30.6193 8.22516 30.1311 7.23305 29.5853 6.35806C32.0087 7.12457 34.2162 8.37657 36.0938 9.99993ZM23.9998 14.5C25.8493 14.5 27.6352 14.2288 29.32 13.7239C29.0157 12.5156 28.6605 11.4059 28.2641 10.4149C27.5821 8.70989 26.8075 7.43073 26.0241 6.60236C25.2437 5.77716 24.5592 5.5 24 5.5C23.4408 5.5 22.7563 5.77716 21.9759 6.60236C21.1925 7.43073 20.4179 8.70989 19.7359 10.4149C19.3395 11.4059 18.9843 12.5157 18.68 13.724C20.3646 14.2289 22.1504 14.5 23.9998 14.5ZM23.9998 17.5C21.9443 17.5 19.9559 17.2113 18.0732 16.6724C17.777 18.4819 17.5858 20.4408 17.5228 22.5H30.4772C30.4142 20.4407 30.223 18.4818 29.9268 16.6723C28.0439 17.2113 26.0554 17.5 23.9998 17.5ZM16.9504 9.30078C16.5437 10.3175 16.1805 11.4299 15.8662 12.6211C14.4322 11.918 13.1023 11.0345 11.906 10.0001C13.7837 8.37666 15.9913 7.12459 18.4147 6.35806C17.8689 7.23305 17.3807 8.22516 16.9504 9.30078ZM15.2085 15.6259C13.228 14.7374 11.4066 13.5581 9.79881 12.1428C7.41552 14.9942 5.87493 18.5742 5.55993 22.5H14.5215C14.5912 20.0814 14.8283 17.7657 15.2085 15.6259Z"/>

</symbol><symbol id="local" viewBox="0 0 48 48">
<path fill-rule="evenodd" clip-rule="evenodd" d="M24 10.5C20.4102 10.5 17.5 13.4102 17.5 17C17.5 20.5898 20.4102 23.5 24 23.5C27.5898 23.5 30.5 20.5898 30.5 17C30.5 13.4102 27.5898 10.5 24 10.5ZM20.5 17C20.5 15.067 22.067 13.5 24 13.5C25.933 13.5 27.5 15.067 27.5 17C27.5 18.933 25.933 20.5 24 20.5C22.067 20.5 20.5 18.933 20.5 17Z"/>
<path fill-rule="evenodd" clip-rule="evenodd" d="M9.5 16.6818C9.5 8.81459 16.0271 2.5 24 2.5C31.9729 2.5 38.5 8.81459 38.5 16.6818C38.5 22.2105 34.8816 27.1602 31.5769 30.5684C29.891 32.3071 28.2105 33.7222 26.9534 34.7021C26.3236 35.193 25.797 35.577 25.4249 35.8403C25.2388 35.9719 25.0912 36.0735 24.9884 36.1433C24.937 36.1782 24.8967 36.2052 24.8685 36.2239L24.8353 36.246L24.8256 36.2524L24.8225 36.2544L24.8214 36.2551C24.821 36.2554 24.8206 36.2556 24 35C23.1794 36.2556 23.179 36.2554 23.1786 36.2551L23.1775 36.2544L23.1744 36.2524L23.1647 36.246L23.1315 36.2239C23.1032 36.2052 23.063 36.1782 23.0116 36.1433C22.9088 36.0735 22.7612 35.9719 22.5751 35.8403C22.203 35.577 21.6764 35.193 21.0466 34.7021C19.7895 33.7222 18.109 32.3071 16.4231 30.5684C13.1184 27.1602 9.5 22.2105 9.5 16.6818ZM24 33.1708C24.3036 32.9507 24.6798 32.6706 25.1091 32.336C26.2895 31.4159 27.859 30.0931 29.4231 28.48C32.6184 25.1847 35.5 20.9753 35.5 16.6818C35.5 10.5411 30.3865 5.5 24 5.5C17.6135 5.5 12.5 10.5411 12.5 16.6818C12.5 20.9753 15.3816 25.1847 18.5769 28.48C20.141 30.0931 21.7105 31.4159 22.8909 32.336C23.3202 32.6706 23.6964 32.9507 24 33.1708Z"/>
<path d="M24 35L24.8214 36.2551C24.3228 36.5809 23.6772 36.5809 23.1786 36.2551L24 35Z"/>
<path d="M11.2946 32.3264C11.5326 33.1199 11.0824 33.9562 10.2889 34.1942C8.55724 34.7137 7.26517 35.3025 6.43949 35.8881C5.57484 36.5014 5.5 36.8989 5.5 37.0001C5.5 37.1013 5.57485 37.4988 6.4395 38.1121C7.26517 38.6977 8.55724 39.2865 10.2889 39.806C13.7331 40.8392 18.5811 41.5001 24 41.5001C29.4189 41.5001 34.2669 40.8392 37.7111 39.806C39.4428 39.2865 40.7348 38.6977 41.5605 38.1121C42.4251 37.4988 42.5 37.1013 42.5 37.0001C42.5 36.8989 42.4252 36.5014 41.5605 35.8881C40.7348 35.3025 39.4427 34.7137 37.7111 34.1942C36.9176 33.9562 36.4673 33.1199 36.7054 32.3265C36.9434 31.533 37.7796 31.0827 38.5731 31.3207C40.4608 31.887 42.0976 32.5911 43.2961 33.4412C44.4555 34.2635 45.5 35.4444 45.5 37.0001C45.5 38.5557 44.4556 39.7366 43.2961 40.559C42.0977 41.4091 40.4608 42.1132 38.5732 42.6795C34.7788 43.8178 29.6268 44.5001 24 44.5001C18.3732 44.5001 13.2212 43.8178 9.42684 42.6795C7.5392 42.1132 5.90234 41.4091 4.7039 40.559C3.54443 39.7366 2.5 38.5557 2.5 37.0001C2.5 35.4444 3.54445 34.2635 4.70391 33.4412C5.90234 32.5911 7.5392 31.887 9.42683 31.3207C10.2203 31.0827 11.0565 31.533 11.2946 32.3264Z"/>
</symbol><symbol id="logo-horizontal" viewBox="0 0 152 25">
<path d="M7 6V19L16 12.5L7 6Z" fill="#FB4C4C"/>
<path d="M26.9702 17.2956C26.7014 17.2956 26.4325 17.2699 26.1765 17.2185C25.9076 17.167 25.6516 17.1028 25.4083 16.9999C25.1522 16.897 24.9218 16.7685 24.7041 16.6013C24.4737 16.4342 24.2817 16.2285 24.128 15.9842L24 15.7913L25.2803 14.737L25.4339 14.9942C25.6003 15.2642 25.818 15.4699 26.0996 15.6113C26.5605 15.8427 27.0983 15.8942 27.636 15.7399C27.828 15.6885 28.0072 15.5985 28.1609 15.4956C28.3145 15.3927 28.4297 15.2642 28.5322 15.097C28.6218 14.9556 28.6602 14.7884 28.6602 14.5827C28.6602 14.3642 28.6218 14.1842 28.5578 14.0556C28.4938 13.927 28.3785 13.8113 28.2249 13.7213C28.0585 13.6056 27.8408 13.5156 27.5848 13.4256C27.4586 13.3795 27.3221 13.3334 27.1754 13.2839C26.9947 13.2228 26.798 13.1565 26.5861 13.0784C26.2789 12.9756 25.9716 12.8599 25.7028 12.7313C25.4211 12.5899 25.1779 12.4227 24.9602 12.217C24.7426 12.0113 24.5761 11.767 24.4481 11.4713C24.3201 11.1884 24.2689 10.8413 24.2689 10.4556C24.2689 10.0055 24.3585 9.59412 24.5377 9.24697C24.7169 8.89983 24.9602 8.61697 25.2675 8.38554C25.5619 8.16696 25.9076 7.98696 26.2789 7.87125C26.6502 7.75553 27.047 7.7041 27.4439 7.7041C27.956 7.7041 28.4297 7.78124 28.865 7.94839C29.3003 8.11553 29.6972 8.39839 30.0429 8.80982L30.2093 9.00268L28.9546 10.0955L28.801 9.8384C28.6602 9.60697 28.4681 9.43983 28.2377 9.33697C27.8024 9.14411 27.3159 9.13126 26.855 9.24697C26.663 9.2984 26.4965 9.37554 26.3429 9.46554C26.2021 9.55554 26.0868 9.67126 26.01 9.82555C25.9332 9.96698 25.882 10.147 25.882 10.3527C25.882 10.5198 25.9076 10.6613 25.9588 10.777C26.01 10.8927 26.074 10.9956 26.1893 11.0856C26.3045 11.1884 26.4709 11.2913 26.6886 11.3813C26.9062 11.4841 27.1879 11.587 27.5207 11.6898C27.8536 11.7927 28.1865 11.9084 28.5066 12.037C28.8394 12.1656 29.1339 12.3327 29.3899 12.5384C29.6588 12.7441 29.8764 13.0141 30.0301 13.3227C30.1837 13.6441 30.2733 14.0299 30.2733 14.4927C30.2733 14.9684 30.1709 15.3799 29.9917 15.7399C29.7996 16.087 29.5564 16.3827 29.2491 16.6142C28.9418 16.8327 28.5962 17.0127 28.1993 17.1156C27.7896 17.2442 27.3799 17.2956 26.9702 17.2956Z"/>
<path fill-rule="evenodd" clip-rule="evenodd" d="M36.5723 17.2958C35.881 17.2958 35.2537 17.1801 34.6775 16.9358C34.1014 16.6915 33.6021 16.3572 33.1796 15.9329C32.7571 15.5086 32.4243 14.9943 32.1938 14.4158C31.9634 13.8372 31.8481 13.1943 31.8481 12.5129C31.8481 11.8314 31.9634 11.1886 32.1938 10.61C32.4243 10.0186 32.7571 9.51714 33.1796 9.09285C33.6021 8.66856 34.1014 8.33427 34.6775 8.08998C35.2537 7.8457 35.8938 7.72998 36.5723 7.72998C37.2637 7.72998 37.891 7.8457 38.4671 8.08998C39.0433 8.33427 39.5426 8.66856 39.9651 9.09285C40.3876 9.51714 40.7204 10.0314 40.9509 10.61C41.1813 11.1886 41.3093 11.8314 41.3093 12.5129C41.3093 13.1943 41.1941 13.8372 40.9637 14.4158C40.7332 15.0072 40.4004 15.5086 39.9779 15.9329C39.5554 16.3572 39.0561 16.6915 38.4799 16.9358C37.9038 17.1672 37.2637 17.2958 36.5723 17.2958ZM36.5723 9.18285C36.1114 9.18285 35.6762 9.27285 35.3049 9.44C34.9208 9.60714 34.5879 9.85143 34.3191 10.1471C34.0374 10.4429 33.8198 10.8029 33.6789 11.2014C33.5253 11.6 33.4485 12.0372 33.4485 12.5C33.4485 12.9629 33.5253 13.4 33.6789 13.7986C33.8326 14.1972 34.0502 14.5572 34.3191 14.8529C34.5879 15.1486 34.9208 15.3929 35.3049 15.56C35.689 15.7272 36.1114 15.8172 36.5723 15.8172C37.0332 15.8172 37.4685 15.7272 37.8398 15.56C38.2239 15.3929 38.5568 15.1486 38.8256 14.8529C39.1073 14.5572 39.3121 14.1972 39.4658 13.7986C39.6194 13.4 39.6962 12.9629 39.6962 12.5C39.6962 12.0372 39.6194 11.6 39.4658 11.2014C39.3121 10.8029 39.0945 10.4429 38.8256 10.1471C38.5568 9.85143 38.2239 9.60714 37.8398 9.44C37.4685 9.27285 37.0332 9.18285 36.5723 9.18285Z"/>
<path d="M47.4802 17.2959C46.84 17.2959 46.2255 17.1802 45.6622 16.9359C45.0989 16.6916 44.5996 16.3574 44.1899 15.9331C43.7802 15.5088 43.4473 14.9945 43.2169 14.4159C42.9864 13.8373 42.8584 13.1945 42.8584 12.5002C42.8584 11.8316 42.9736 11.2016 43.1913 10.623C43.4217 10.0444 43.7418 9.53016 44.1515 9.10587C44.5612 8.68158 45.0477 8.33443 45.611 8.09015C46.1743 7.84586 46.8016 7.71729 47.4674 7.71729C48.0819 7.71729 48.6708 7.833 49.2341 8.05157C49.8103 8.283 50.3096 8.65586 50.6937 9.17015L50.8473 9.37587L49.5414 10.3273L49.3878 10.1216C49.1573 9.81302 48.8629 9.56873 48.53 9.41444C48.1843 9.26016 47.8259 9.17015 47.4418 9.17015C47.0065 9.17015 46.5968 9.26016 46.2383 9.44016C45.867 9.62016 45.547 9.86445 45.2781 10.1602C45.0093 10.4687 44.7916 10.8159 44.6508 11.2273C44.4971 11.6259 44.4203 12.063 44.4203 12.5002C44.4203 12.9759 44.4971 13.413 44.6508 13.8116C44.8044 14.2102 45.0093 14.5702 45.2781 14.8659C45.5342 15.1616 45.8542 15.3931 46.2255 15.5602C46.584 15.7274 46.9937 15.8174 47.4418 15.8174C47.9283 15.8174 48.3636 15.7274 48.7348 15.5345C49.1061 15.3416 49.4518 15.0716 49.7335 14.7116L49.8999 14.5059L51.0521 15.4831L50.9113 15.6759C50.5016 16.2288 49.9895 16.6402 49.4134 16.8974C48.8629 17.1674 48.1971 17.2959 47.4802 17.2959Z"/>
<path d="M54.3298 17.0761H52.7935V7.93457H54.3298V17.0761Z"/>
<path fill-rule="evenodd" clip-rule="evenodd" d="M64.9048 17.0761H63.1636L62.293 14.9546H58.337L57.4536 17.0761H55.738L59.7453 7.93457H61.0384L64.9048 17.0761ZM58.9515 13.4889H61.6913L60.3598 10.1589L58.9515 13.4889Z"/>
<path d="M66.313 17.0761V7.93457H67.8493V15.6103H71.7797V17.0761H66.313Z"/>
<path fill-rule="evenodd" clip-rule="evenodd" d="M80.5592 17.0517H77V7.91016H80.5592C80.8536 7.91016 81.1737 7.94873 81.5066 8.01301C81.8394 8.0773 82.1723 8.19302 82.5052 8.3473C82.838 8.50159 83.1581 8.69445 83.4526 8.93874C83.7598 9.18302 84.0287 9.47874 84.2591 9.81303C84.4896 10.1473 84.6816 10.5459 84.8097 10.9959C84.9505 11.433 85.0145 11.9345 85.0145 12.4873C85.0145 13.0402 84.9505 13.5416 84.8097 13.9788C84.6688 14.4159 84.4896 14.8145 84.2591 15.1616C84.0287 15.5088 83.7598 15.8045 83.4526 16.0359C83.1453 16.2802 82.8252 16.4731 82.5052 16.6274C82.1723 16.7817 81.8394 16.8845 81.5066 16.9617C81.1865 17.0259 80.8664 17.0517 80.5592 17.0517ZM78.5363 15.5988H80.2263C80.6872 15.5988 81.1225 15.5345 81.5194 15.4188C81.9034 15.3031 82.2363 15.1102 82.518 14.8659C82.7996 14.6216 83.0173 14.3002 83.1837 13.9145C83.3502 13.5288 83.427 13.0531 83.427 12.4873C83.427 11.9345 83.3502 11.4588 83.1837 11.0602C83.0173 10.6745 82.7996 10.353 82.518 10.1087C82.2363 9.86446 81.9034 9.6716 81.5194 9.55588C81.1225 9.44017 80.6872 9.37588 80.2263 9.37588H78.5363V15.5988Z"/>
<path fill-rule="evenodd" clip-rule="evenodd" d="M95.103 17.0517H93.3619L92.4913 14.9302H88.5352L87.6518 17.0517H85.9363L89.9435 7.91016H91.2366L95.103 17.0517ZM89.1498 13.4773H91.8895L90.5581 10.1473L89.1498 13.4773Z"/>
<path d="M104.321 17.0517H102.644L98.0349 10.4173V17.0517H96.4985V7.91016H98.1757L102.785 14.5445V7.91016H104.321V17.0517Z"/>
<path d="M110.978 17.2828C110.338 17.2828 109.724 17.167 109.16 16.9227C108.597 16.6785 108.098 16.3442 107.688 15.9199C107.278 15.4956 106.946 14.9813 106.715 14.4027C106.485 13.8242 106.357 13.1813 106.357 12.487C106.357 11.8184 106.472 11.1884 106.69 10.6098C106.92 10.0313 107.24 9.51697 107.65 9.09268C108.059 8.66839 108.546 8.32125 109.109 8.07696C109.673 7.83267 110.3 7.7041 110.966 7.7041C111.58 7.7041 112.169 7.81982 112.732 8.03839C113.309 8.26982 113.808 8.64268 114.192 9.15697L114.346 9.36269L113.04 10.3141L112.886 10.1084C112.656 9.79983 112.361 9.55554 112.028 9.40126C111.683 9.24697 111.324 9.15697 110.94 9.15697C110.505 9.15697 110.095 9.24697 109.737 9.42697C109.365 9.60697 109.045 9.85126 108.776 10.147C108.508 10.4556 108.29 10.8027 108.149 11.2141C107.995 11.6127 107.919 12.0499 107.919 12.487C107.919 12.9627 107.995 13.3999 108.149 13.7984C108.303 14.197 108.508 14.557 108.776 14.8527C109.032 15.1485 109.353 15.3799 109.724 15.547C110.082 15.7142 110.492 15.8042 110.94 15.8042C111.427 15.8042 111.862 15.7142 112.233 15.5213C112.604 15.3284 112.95 15.0584 113.232 14.6984L113.398 14.4927L114.55 15.4699L114.41 15.6627C114 16.2156 113.488 16.627 112.912 16.8842C112.361 17.1413 111.695 17.2828 110.978 17.2828Z"/>
<path d="M122.424 17.0517H116.292V7.91016H122.206V9.37588H117.828V11.5616H121.912V13.0273H117.828V15.5988H122.424V17.0517Z"/>
<path d="M133.366 16.8328H131.842V9.15697H129V7.7041H136.208V9.16983H133.366V16.8328Z"/>
<path d="M141.342 16.8328H140.01L136.528 7.7041H138.231L140.714 14.3642L143.275 7.7041H144.901L141.342 16.8328Z"/>
<path fill-rule="evenodd" clip-rule="evenodd" d="M0 0H152V25H0V0ZM1 1H151V24H1V1Z"/>
</symbol><symbol id="logo-square" viewBox="0 0 110 110">
<path fill-rule="evenodd" clip-rule="evenodd" d="M37.1731 30.3896L32.5166 27.3381V33.4407L37.1731 30.3896Z" fill="#FB4C4C"/>
<path d="M19.5992 29.3821C20.223 29.6256 20.784 29.9397 21.2664 30.3159C21.7734 30.7122 22.1826 31.2124 22.4822 31.803C22.7847 32.4003 22.9381 33.1418 22.9381 34.0069C22.9381 34.8931 22.7563 35.6802 22.3975 36.3469C22.0442 37.0035 21.5699 37.5549 20.9872 37.9858C20.4168 38.4074 19.7545 38.7247 19.0182 38.9293C18.3002 39.1291 17.5493 39.2301 16.7861 39.2301C16.2934 39.2301 15.7932 39.1854 15.3001 39.098C14.8022 39.0096 14.3159 38.8704 13.8549 38.6848C13.3842 38.4948 12.938 38.2445 12.5284 37.9405C12.1033 37.6261 11.7325 37.2337 11.4265 36.7746L11.1152 36.3077L13.7083 34.1814L14.0749 34.8041C14.3554 35.28 14.7346 35.63 15.2348 35.8738C16.0559 36.275 16.9861 36.3792 17.9353 36.1027C18.275 36.0036 18.583 35.8576 18.8512 35.6685C19.1094 35.4863 19.3148 35.2667 19.4792 34.9964C19.628 34.7519 19.7002 34.4719 19.7002 34.14C19.7002 33.7566 19.6426 33.4549 19.529 33.2431C19.4164 33.0333 19.2317 32.8433 18.981 32.6794C18.6849 32.4868 18.2973 32.3071 17.8292 32.1465C17.3112 31.9688 16.7039 31.7615 16.0083 31.5242C15.4328 31.3426 14.8812 31.1256 14.3823 30.8835C13.8523 30.627 13.3838 30.3055 12.9908 29.9283C12.5841 29.5388 12.2602 29.0664 12.0279 28.5244C11.7956 27.9824 11.6779 27.3355 11.6779 26.6012C11.6779 25.7474 11.8516 24.9843 12.1932 24.3335C12.532 23.6905 12.9953 23.1459 13.5699 22.7143C14.1286 22.2947 14.7692 21.9738 15.4732 21.7607C16.1669 21.5513 16.8997 21.4451 17.6522 21.4451C18.6108 21.4451 19.5025 21.5966 20.3023 21.8961C21.1321 22.2066 21.8798 22.7496 22.5243 23.5098L22.92 23.9763L20.3751 26.1907L19.992 25.5703C19.7461 25.1717 19.4294 24.8904 19.0237 24.7103C18.254 24.3697 17.3908 24.3458 16.5852 24.5546C16.252 24.6414 15.9508 24.7712 15.69 24.9412C15.4532 25.0953 15.2684 25.2944 15.1248 25.5493C14.9844 25.7982 14.9161 26.0916 14.9161 26.4458C14.9161 26.7203 14.9569 26.9599 15.0371 27.1574C15.1125 27.3443 15.2367 27.5117 15.4176 27.671C15.622 27.8519 15.9132 28.0274 16.283 28.1929C16.6878 28.3748 17.1951 28.5604 17.791 28.7449C18.4138 28.9427 19.0211 29.1568 19.5992 29.3821Z"/>
<path d="M76.8415 61.8216C77.5115 61.4865 78.1068 60.9934 78.6106 60.3566L79.0063 59.857L81.3419 61.8233L80.9911 62.2921C80.2195 63.322 79.2738 64.091 78.1809 64.577C77.1065 65.0549 75.8816 65.2974 74.5405 65.2974C73.3367 65.2974 72.1936 65.0714 71.1434 64.6252C70.0946 64.1803 69.1712 63.5545 68.3983 62.7651C67.626 61.9767 67.0139 61.0297 66.5778 59.9509C66.1426 58.874 65.9216 57.6809 65.9216 56.4049C65.9216 55.1768 66.1335 54.0086 66.5525 52.9333C66.9728 51.8542 67.5739 50.9026 68.3384 50.1052C69.1023 49.309 70.0208 48.6715 71.069 48.2101C72.1215 47.7471 73.2894 47.5127 74.5402 47.5127C75.6787 47.5127 76.7904 47.7215 77.8435 48.1334C78.9318 48.5598 79.8552 49.2634 80.588 50.225L80.9724 50.7294L78.3424 52.64L77.9771 52.1492C77.5627 51.5916 77.0664 51.1856 76.4607 50.9085C75.8489 50.6284 75.2031 50.4863 74.5405 50.4863C73.765 50.4863 73.0445 50.6449 72.4001 50.9577C71.7439 51.2759 71.1693 51.7095 70.6921 52.2463C70.213 52.786 69.8335 53.4239 69.5649 54.1423C69.2961 54.8611 69.1599 55.6223 69.1599 56.4049C69.1599 57.2467 69.2964 58.038 69.5649 58.7565C69.8328 59.4736 70.2078 60.103 70.6789 60.6276C71.1457 61.1475 71.7142 61.5652 72.3683 61.8696C73.0157 62.1707 73.7469 62.3235 74.5405 62.3235C75.4021 62.3235 76.1763 62.1545 76.8415 61.8216Z"/>
<path fill-rule="evenodd" clip-rule="evenodd" d="M25.7187 51.4406C25.2855 50.8067 24.7756 50.2553 24.202 49.8023C23.64 49.3587 23.0437 48.9922 22.4306 48.7128C21.8207 48.436 21.1973 48.2307 20.5764 48.1028C19.9601 47.9765 19.3651 47.9121 18.808 47.9121H12.1445V64.8961H18.808C19.3661 64.8961 19.9614 64.832 20.5764 64.7054C21.197 64.5782 21.8207 64.3729 22.4309 64.0957C23.0434 63.817 23.6393 63.4504 24.202 63.0062C24.7749 62.5539 25.2855 62.0032 25.7183 61.3686C26.1519 60.7349 26.5003 59.998 26.7543 59.1785C27.0089 58.3578 27.1377 57.424 27.1377 56.4041C27.1377 55.3849 27.0086 54.4514 26.7543 53.6293C26.5003 52.8112 26.1519 52.0746 25.7187 51.4406ZM23.9001 56.4044C23.9001 57.3981 23.7519 58.2522 23.4601 58.9428C23.1721 59.6244 22.7774 60.189 22.2873 60.621C21.7932 61.0571 21.197 61.3848 20.515 61.5942C19.8068 61.8121 19.0232 61.9225 18.1859 61.9225H15.2495V50.886H18.1859C19.0232 50.886 19.8068 50.9964 20.5146 51.2143C21.1967 51.4244 21.7932 51.7521 22.2873 52.1876C22.7774 52.6201 23.1721 53.1848 23.4601 53.8657C23.7519 54.557 23.9001 55.4108 23.9001 56.4044Z"/>
<path d="M32.3053 86.4783L36.8942 74.599H40.203L33.5632 91.5826H30.9154L24.4191 74.599H27.8593L32.3053 86.4783Z"/>
<path d="M15.9226 77.5722H10.7224V74.599H24.2267V77.5722H19.0268V91.5826H15.9226V77.5722Z"/>
<path fill-rule="evenodd" clip-rule="evenodd" d="M28.4141 64.8963L35.8928 47.9124H38.4614L45.6762 64.8963H42.149L40.5491 61.0266H33.5081L31.8859 64.8963H28.4141ZM34.7631 58.053H39.3359L37.1051 52.5045L34.7631 58.053Z"/>
<path d="M59.3882 59.7007L51.1746 47.9124H47.8772V64.8963H50.9818V53.108L59.195 64.8963H62.4928V47.9124H59.3882V59.7007Z"/>
<path d="M87.2478 61.9228V57.5573H94.7367V54.5841H87.2478V50.8859H95.2702V47.9124H84.1436V64.8963H95.6704V61.9228H87.2478Z"/>
<path fill-rule="evenodd" clip-rule="evenodd" d="M40.7233 23.9728C39.9355 23.1847 38.9934 22.5595 37.9225 22.115C36.8509 21.6704 35.6607 21.4451 34.3856 21.4451C33.1106 21.4451 31.9203 21.6704 30.8484 22.1153C29.7775 22.5598 28.8357 23.1847 28.0479 23.9728C27.2588 24.7625 26.6373 25.715 26.2002 26.8039C25.7651 27.8879 25.5444 29.0768 25.5444 30.3376C25.5444 31.5984 25.7651 32.7873 26.1999 33.8706C26.637 34.9595 27.2585 35.9123 28.0479 36.702C28.8351 37.4904 29.7775 38.1153 30.8488 38.5595C31.92 39.0041 33.1099 39.2294 34.3856 39.2294C35.6613 39.2294 36.8513 39.0041 37.9228 38.5592C38.9934 38.115 39.9352 37.4901 40.7233 36.7017C41.5127 35.9117 42.1339 34.9591 42.571 33.8703C43.0061 32.7853 43.2268 31.5967 43.2268 30.3372C43.2268 29.0778 43.0061 27.8892 42.5707 26.8039C42.1339 25.715 41.5124 24.7625 40.7233 23.9728ZM39.9889 30.3376C39.9889 31.1616 39.8491 31.9435 39.5741 32.6623C39.2998 33.3785 38.9115 34.0108 38.4204 34.5424C37.9319 35.0705 37.3382 35.4931 36.6558 35.7984C35.9764 36.1021 35.2129 36.2559 34.3859 36.2559C33.5587 36.2559 32.7954 36.1021 32.116 35.7984C31.4334 35.4934 30.8397 35.0705 30.3512 34.5421C29.8594 34.0108 29.4715 33.3782 29.1974 32.662C28.9224 31.9438 28.783 31.1619 28.783 30.3376C28.783 29.5132 28.9224 28.731 29.1974 28.0125C29.4715 27.2967 29.86 26.6643 30.3518 26.1324C30.84 25.6043 31.4334 25.1814 32.116 24.8764C32.7958 24.5727 33.5593 24.4189 34.3859 24.4189C35.2122 24.4189 35.9758 24.5727 36.6555 24.8764C37.3382 25.1818 37.9322 25.6046 38.4201 26.1327C38.9118 26.6647 39.2998 27.2973 39.5741 28.0129C39.8491 28.7313 39.9889 29.5136 39.9889 30.3376Z"/>
<path d="M56.6639 35.7543C57.334 35.4192 57.9293 34.9261 58.433 34.2893L58.8287 33.7887L61.1643 35.7553L60.8132 36.2238C60.0416 37.2537 59.0962 38.0224 58.0034 38.5087C56.9283 38.9869 55.7037 39.2294 54.363 39.2294C53.1594 39.2294 52.0164 39.0034 50.9659 38.5576C49.917 38.1124 48.9936 37.4865 48.221 36.6975C47.4484 35.9088 46.836 34.9617 46.4005 33.8829C45.9654 32.807 45.7444 31.6139 45.7444 30.3376C45.7444 29.1092 45.9563 27.941 46.3753 26.8657C46.7959 25.7863 47.3967 24.8347 48.1609 24.0375C48.9247 23.2414 49.8439 22.6039 50.8921 22.1425C51.9439 21.6795 53.1119 21.4451 54.363 21.4451C55.5015 21.4451 56.6128 21.6539 57.6659 22.0654C58.7543 22.4918 59.6776 23.1954 60.4104 24.157L60.7948 24.6615L58.1648 26.5721L57.7995 26.0812C57.3851 25.5237 56.8888 25.1177 56.2831 24.8402C55.6713 24.5604 55.0252 24.4183 54.363 24.4183C53.5875 24.4183 52.867 24.577 52.2218 24.89C51.5663 25.2083 50.9918 25.6418 50.5145 26.1787C50.0348 26.7191 49.6556 27.3569 49.3874 28.0744C49.1185 28.7935 48.9823 29.5547 48.9823 30.3372C48.9823 31.1784 49.1188 31.9697 49.3874 32.6885C49.6549 33.4053 50.0299 34.0351 50.5013 34.5596C50.9681 35.0799 51.5363 35.4976 52.1908 35.8019C52.8375 36.1034 53.5684 36.2559 54.363 36.2559C55.2249 36.2559 55.9987 36.0872 56.6639 35.7543Z"/>
<path d="M67.0704 21.8452H63.9658V38.8292H67.0704V21.8452Z"/>
<path fill-rule="evenodd" clip-rule="evenodd" d="M69.2578 38.8292L76.7366 21.8452H79.3051L86.5199 38.8292H82.9927L81.3929 34.9594H74.3518L72.7296 38.8292H69.2578ZM75.6071 31.9862H80.1796L77.9492 26.4377L75.6071 31.9862Z"/>
<path d="M91.8256 35.8556V21.8452H88.7207V38.8292H99.0252V35.8556H91.8256Z"/>
<path fill-rule="evenodd" clip-rule="evenodd" d="M0 110V0H110V110H0ZM2.64908 2.64908H107.351V107.351H2.64908V2.64908Z"/>
</symbol></svg>