<svg width="40" height="16" viewBox="0 0 40 16" fill="none" xmlns="http://www.w3.org/2000/svg">
<path d="M7.3128 2.43387C6.84405 2.94053 6.09405 3.34015 5.34405 3.28306C5.2503 2.598 5.61749 1.87012 6.04718 1.42055C6.51593 0.899619 7.33624 0.528544 8.0003 0.5C8.07843 1.21361 7.77374 1.91294 7.3128 2.43387ZM7.99249 3.41865C6.90655 3.36156 5.97686 3.9824 5.46124 3.9824C4.9378 3.9824 4.14874 3.44719 3.28936 3.46147C2.17218 3.47574 1.13311 4.05376 0.562801 4.97431C-0.609075 6.81541 0.258113 9.54139 1.39093 11.04C1.94561 11.7821 2.60968 12.5956 3.48468 12.5671C4.3128 12.5385 4.64093 12.0747 5.64093 12.0747C6.64874 12.0747 6.9378 12.5671 7.8128 12.5528C8.71905 12.5385 9.28936 11.8107 9.84405 11.0685C10.4769 10.2265 10.7347 9.4058 10.7503 9.36299C10.7347 9.34872 9.0003 8.74215 8.98468 6.91532C8.96905 5.3882 10.3519 4.66032 10.4144 4.61751C9.63311 3.56137 8.41436 3.44719 7.99249 3.41865ZM14.2659 1.34919V12.4743H16.1566V8.67079H18.7737C21.1644 8.67079 22.8441 7.17222 22.8441 5.00285C22.8441 2.83349 21.1956 1.34919 18.8362 1.34919H14.2659ZM16.1566 2.80495H18.3362C19.9769 2.80495 20.9144 3.60419 20.9144 5.00999C20.9144 6.41579 19.9769 7.22217 18.3284 7.22217H16.1566V2.80495ZM26.2972 12.5599C27.4847 12.5599 28.5862 12.0105 29.0862 11.1399H29.1253V12.4743H30.8753V6.93673C30.8753 5.33111 29.4691 4.29638 27.305 4.29638C25.2972 4.29638 23.8128 5.34539 23.7581 6.78687H25.4612C25.6019 6.10181 26.2972 5.65224 27.2503 5.65224C28.4066 5.65224 29.055 6.14462 29.055 7.0509V7.66461L26.6956 7.79305C24.5003 7.91437 23.3128 8.73501 23.3128 10.1622C23.3128 11.6037 24.5394 12.5599 26.2972 12.5599ZM26.805 11.2398C25.7972 11.2398 25.1566 10.7973 25.1566 10.1194C25.1566 9.42008 25.7737 9.01332 26.9534 8.9491L29.055 8.82778V9.45576C29.055 10.4976 28.0862 11.2398 26.805 11.2398ZM33.2112 15.5C35.055 15.5 35.9222 14.8578 36.68 12.9096L40.0003 4.40343H38.0784L35.8519 10.9757H35.8128L33.5862 4.40343H31.6097L34.8128 12.5029L34.6409 12.9952C34.3519 13.8302 33.8831 14.1513 33.0472 14.1513C32.8987 14.1513 32.6097 14.137 32.4925 14.1227V15.4572C32.6019 15.4857 33.0706 15.5 33.2112 15.5Z" fill="black"/>
</svg>
