<svg width="12" height="10" viewBox="0 0 12 10" fill="none" xmlns="http://www.w3.org/2000/svg">
<path fill-rule="evenodd" clip-rule="evenodd" d="M0.292893 4.29289C0.683417 3.90237 1.31658 3.90237 1.70711 4.29289L5.04044 7.62623C5.43096 8.01675 5.43096 8.64992 5.04044 9.04044C4.64992 9.43096 4.01675 9.43096 3.62623 9.04044L0.292893 5.70711C-0.0976311 5.31658 -0.0976311 4.68342 0.292893 4.29289Z" fill="#0CC36B"/>
<path fill-rule="evenodd" clip-rule="evenodd" d="M11.7071 0.95955C11.3166 0.569025 10.6834 0.569025 10.2929 0.95955L3.62623 7.62622C3.2357 8.01674 3.2357 8.64991 3.62623 9.04043C4.01675 9.43095 4.64992 9.43095 5.04044 9.04043L11.7071 2.37376C12.0976 1.98324 12.0976 1.35007 11.7071 0.95955Z" fill="#0CC36B"/>
</svg>
