<svg viewBox="0 0 152 25" fill="none" xmlns="http://www.w3.org/2000/svg">
    <path
        d="M29.0059 9.72287C28.8394 9.45287 28.609 9.24715 28.3273 9.11858C28.0457 8.99001 27.7512 8.92572 27.4439 8.92572C27.2135 8.92572 26.9958 8.95144 26.7782 9.01572C26.5605 9.06715 26.3685 9.15715 26.1893 9.27287C26.01 9.38858 25.882 9.54287 25.7668 9.72287C25.6644 9.91573 25.6131 10.1343 25.6131 10.3786C25.6131 10.5715 25.6387 10.7515 25.7028 10.8929C25.7668 11.0472 25.8564 11.1757 25.9972 11.3043C26.1381 11.42 26.3173 11.5357 26.5605 11.6515C26.791 11.7543 27.0855 11.8572 27.4183 11.9729C27.7512 12.0757 28.0713 12.1915 28.3785 12.32C28.6858 12.4358 28.9675 12.59 29.1979 12.7829C29.4412 12.9758 29.6204 13.2072 29.774 13.4772C29.9149 13.76 29.9917 14.1072 29.9917 14.5315C29.9917 14.9558 29.9021 15.3415 29.7356 15.6501C29.5692 15.9586 29.3387 16.2286 29.0571 16.4344C28.7754 16.6401 28.4553 16.7944 28.0969 16.8972C27.7384 17.0001 27.3543 17.0515 26.9702 17.0515C26.7142 17.0515 26.4709 17.0258 26.2149 16.9872C25.9588 16.9486 25.7284 16.8715 25.4979 16.7815C25.2675 16.6915 25.0498 16.5629 24.845 16.4215C24.6401 16.2672 24.4737 16.0872 24.3201 15.8686L25.1907 15.1486C25.3827 15.4701 25.6387 15.7015 25.9716 15.8686C26.3045 16.0358 26.6502 16.1129 27.0214 16.1129C27.2391 16.1129 27.4567 16.0744 27.6872 16.0101C27.9048 15.9458 28.1097 15.8558 28.2889 15.7272C28.4681 15.5986 28.609 15.4443 28.7242 15.2643C28.8394 15.0715 28.8906 14.8658 28.8906 14.6215C28.8906 14.3515 28.8522 14.1329 28.7626 13.9658C28.673 13.7986 28.5322 13.6572 28.3529 13.5286C28.1609 13.4129 27.9304 13.2972 27.6488 13.1943C27.3671 13.0915 27.0342 12.9886 26.6502 12.8472C26.3429 12.7443 26.0612 12.6415 25.8052 12.5129C25.5491 12.3843 25.3187 12.23 25.1266 12.05C24.9346 11.87 24.781 11.6515 24.6785 11.3943C24.5761 11.1372 24.5121 10.8286 24.5121 10.4686C24.5121 10.0572 24.5889 9.69716 24.7554 9.38858C24.9218 9.08001 25.1394 8.82286 25.4083 8.61715C25.6772 8.41143 25.9972 8.25714 26.3429 8.15429C26.6886 8.05143 27.0599 8 27.4311 8C27.9176 8 28.3529 8.07714 28.7626 8.23143C29.1595 8.38572 29.518 8.64286 29.838 9.01572L29.0059 9.72287Z"
        fill="#242428" />
    <path
        d="M26.9702 17.2956C26.7014 17.2956 26.4325 17.2699 26.1765 17.2185C25.9076 17.167 25.6516 17.1028 25.4083 16.9999C25.1522 16.897 24.9218 16.7685 24.7041 16.6013C24.4737 16.4342 24.2817 16.2285 24.128 15.9842L24 15.7913L25.2803 14.737L25.4339 14.9942C25.6003 15.2642 25.818 15.4699 26.0996 15.6113C26.5605 15.8427 27.0983 15.8942 27.636 15.7399C27.828 15.6885 28.0072 15.5985 28.1609 15.4956C28.3145 15.3927 28.4297 15.2642 28.5322 15.097C28.6218 14.9556 28.6602 14.7884 28.6602 14.5827C28.6602 14.3642 28.6218 14.1842 28.5578 14.0556C28.4938 13.927 28.3785 13.8113 28.2249 13.7213C28.0585 13.6056 27.8408 13.5156 27.5848 13.4256C27.3031 13.3227 26.9702 13.2199 26.5861 13.0784C26.2789 12.9756 25.9716 12.8599 25.7028 12.7313C25.4211 12.5899 25.1778 12.4227 24.9602 12.217C24.7426 12.0113 24.5761 11.767 24.4481 11.4713C24.3201 11.1884 24.2689 10.8413 24.2689 10.4556C24.2689 10.0055 24.3585 9.59412 24.5377 9.24697C24.7169 8.89983 24.9602 8.61697 25.2675 8.38554C25.5619 8.16696 25.9076 7.98696 26.2789 7.87125C26.6502 7.75553 27.047 7.7041 27.4439 7.7041C27.956 7.7041 28.4297 7.78124 28.865 7.94839C29.3003 8.11553 29.6972 8.39839 30.0429 8.80982L30.2093 9.00268L28.9546 10.0955L28.801 9.8384C28.6602 9.60697 28.4681 9.43983 28.2377 9.33697C27.8024 9.14411 27.3159 9.13126 26.855 9.24697C26.663 9.2984 26.4965 9.37554 26.3429 9.46554C26.2021 9.55555 26.0868 9.67126 26.01 9.82555C25.9332 9.96698 25.882 10.147 25.882 10.3527C25.882 10.5198 25.9076 10.6613 25.9588 10.777C26.01 10.8927 26.074 10.9956 26.1893 11.0856C26.3045 11.1884 26.4709 11.2913 26.6886 11.3813C26.9062 11.4841 27.1879 11.587 27.5207 11.6898C27.8536 11.7927 28.1865 11.9084 28.5066 12.037C28.8394 12.1656 29.1339 12.3327 29.3899 12.5384C29.6588 12.7441 29.8764 13.0141 30.0301 13.3227C30.1837 13.6442 30.2733 14.0299 30.2733 14.4927C30.2733 14.9684 30.1709 15.3799 29.9917 15.7399C29.7996 16.087 29.5564 16.3827 29.2491 16.6142C28.9418 16.8327 28.5962 17.0127 28.1993 17.1156C27.7896 17.2442 27.3799 17.2956 26.9702 17.2956ZM24.6785 15.8813C24.781 15.997 24.8834 16.0999 24.9986 16.1899C25.1778 16.3313 25.3827 16.4342 25.5875 16.5242C25.8052 16.6142 26.0228 16.6785 26.2533 16.717C26.855 16.8199 27.4567 16.7942 28.0201 16.6399C28.3529 16.5499 28.6474 16.4085 28.9034 16.2156C29.1467 16.0356 29.3515 15.7913 29.5052 15.5085C29.6588 15.2256 29.7356 14.8913 29.7356 14.5056C29.7356 14.1327 29.6716 13.8113 29.5564 13.567C29.4284 13.3227 29.2619 13.117 29.0571 12.9499C28.8394 12.7827 28.5834 12.6413 28.3017 12.5256C27.9944 12.4099 27.6744 12.2941 27.3543 12.1913C27.0086 12.0884 26.7142 11.9727 26.4709 11.8698C26.2149 11.7541 26.01 11.6256 25.8436 11.4841C25.6772 11.3427 25.5491 11.1627 25.4723 10.9827C25.3955 10.8027 25.3571 10.597 25.3571 10.3656C25.3571 10.0698 25.4211 9.81269 25.5491 9.58126C25.6772 9.36269 25.8436 9.18268 26.0484 9.04125C26.2405 8.91268 26.4709 8.80982 26.7142 8.7584C27.2775 8.60411 27.892 8.62982 28.4297 8.87411C28.673 8.97697 28.8778 9.13126 29.0443 9.33697L29.4668 8.96411C29.2235 8.71982 28.9546 8.55268 28.673 8.43696C28.3017 8.29553 27.892 8.23125 27.4311 8.23125C27.0727 8.23125 26.7398 8.28268 26.4197 8.37268C26.0996 8.47554 25.818 8.61697 25.5619 8.79697C25.3187 8.97697 25.1266 9.2084 24.9858 9.4784C24.845 9.7484 24.7682 10.0698 24.7682 10.4427C24.7682 10.7641 24.8194 11.0341 24.909 11.2656C24.9986 11.4841 25.1394 11.677 25.2931 11.8441C25.4595 12.0113 25.6644 12.1527 25.8948 12.2556C26.1381 12.3713 26.4197 12.487 26.7142 12.577C27.0983 12.7056 27.4311 12.8213 27.7128 12.9241C28.02 13.027 28.2761 13.1427 28.4681 13.2841C28.6858 13.4256 28.8522 13.6056 28.9675 13.8113C29.0699 14.017 29.1339 14.2742 29.1339 14.5827C29.1339 14.8784 29.0699 15.1356 28.929 15.367C28.801 15.5856 28.6218 15.7656 28.4169 15.907C28.2121 16.0485 27.9944 16.1513 27.7384 16.2285C27.0855 16.4213 26.4197 16.357 25.8436 16.0613C25.5619 15.9199 25.3187 15.727 25.1266 15.4827L24.6785 15.8813Z"
        fill="#242428" />
    <path
        d="M36.5724 17.0382C35.9194 17.0382 35.3177 16.9224 34.7672 16.691C34.2167 16.4596 33.743 16.151 33.3461 15.7524C32.9492 15.3539 32.6291 14.8653 32.4115 14.3124C32.1938 13.7596 32.0786 13.1553 32.0786 12.4995C32.0786 11.8438 32.1938 11.2524 32.4115 10.6867C32.6291 10.1338 32.9492 9.64524 33.3461 9.24666C33.743 8.84809 34.2167 8.52666 34.7672 8.30808C35.3177 8.07665 35.9194 7.96094 36.5724 7.96094C37.2253 7.96094 37.827 8.07665 38.3776 8.30808C38.9281 8.53951 39.4018 8.84809 39.7987 9.24666C40.1955 9.64524 40.5156 10.1338 40.7332 10.6867C40.9509 11.2395 41.0661 11.8438 41.0661 12.4995C41.0661 13.1553 40.9509 13.7467 40.7332 14.3124C40.5156 14.8653 40.1955 15.3539 39.7987 15.7524C39.4018 16.151 38.9281 16.4724 38.3776 16.691C37.827 16.9224 37.2381 17.0382 36.5724 17.0382ZM36.5724 16.0867C37.0717 16.0867 37.5326 15.9967 37.9551 15.8039C38.3775 15.611 38.7232 15.3667 39.0305 15.0324C39.3249 14.711 39.5682 14.3253 39.7218 13.8881C39.8883 13.451 39.9651 12.9881 39.9651 12.4995C39.9651 11.9981 39.8883 11.5353 39.7218 11.111C39.5554 10.6738 39.3249 10.301 39.0305 9.96667C38.736 9.64524 38.3775 9.38809 37.9551 9.19523C37.5326 9.00237 37.0845 8.91237 36.5724 8.91237C36.0731 8.91237 35.6122 9.00237 35.1897 9.19523C34.7672 9.38809 34.4215 9.63238 34.1142 9.96667C33.8198 10.2881 33.5765 10.6738 33.4229 11.111C33.2565 11.5481 33.1796 12.011 33.1796 12.4995C33.1796 13.001 33.2565 13.4638 33.4229 13.8881C33.5893 14.3253 33.8198 14.6981 34.1142 15.0324C34.4087 15.3539 34.7672 15.611 35.1897 15.8039C35.6122 15.9967 36.0731 16.0867 36.5724 16.0867Z"
        fill="#242428" />
    <path
        d="M36.5723 17.2953C35.881 17.2953 35.2537 17.1796 34.6775 16.9353C34.1014 16.691 33.6021 16.3567 33.1796 15.9324C32.7571 15.5081 32.4243 14.9938 32.1938 14.4153C31.9634 13.8367 31.8481 13.1938 31.8481 12.5124C31.8481 11.831 31.9634 11.1881 32.1938 10.6095C32.4243 10.0181 32.7571 9.51665 33.1796 9.09236C33.6021 8.66807 34.1014 8.33378 34.6775 8.0895C35.2537 7.84521 35.8938 7.72949 36.5723 7.72949C37.2637 7.72949 37.891 7.84521 38.4671 8.0895C39.0433 8.33378 39.5426 8.66807 39.9651 9.09236C40.3876 9.51665 40.7204 10.0309 40.9509 10.6095C41.1813 11.1881 41.3093 11.831 41.3093 12.5124C41.3093 13.1938 41.1941 13.8367 40.9637 14.4153C40.7332 15.0067 40.4004 15.5081 39.9779 15.9324C39.5554 16.3567 39.0561 16.691 38.4799 16.9353C37.9038 17.1667 37.2637 17.2953 36.5723 17.2953ZM36.5723 8.23092C35.9578 8.23092 35.3817 8.33378 34.8696 8.55236C34.3575 8.77093 33.9094 9.06665 33.5381 9.43951C33.1668 9.81237 32.8724 10.2752 32.6547 10.7895C32.4499 11.3167 32.3346 11.8824 32.3346 12.4995C32.3346 13.1167 32.4371 13.6953 32.6547 14.2095C32.8596 14.7367 33.154 15.1867 33.5381 15.5596C33.9094 15.9324 34.3575 16.2281 34.8696 16.4467C35.3817 16.6653 35.9578 16.7681 36.5723 16.7681C37.1869 16.7681 37.763 16.6653 38.2751 16.4467C38.7872 16.2281 39.2353 15.9324 39.6066 15.5596C39.9779 15.1867 40.2723 14.7238 40.49 14.2095C40.6948 13.6824 40.81 13.1038 40.81 12.4995C40.81 11.8824 40.7076 11.3038 40.49 10.7895C40.2851 10.2624 39.9907 9.81237 39.6066 9.43951C39.2353 9.06665 38.7872 8.77093 38.2751 8.55236C37.763 8.33378 37.1997 8.23092 36.5723 8.23092ZM36.5723 16.3439C36.0346 16.3439 35.5353 16.241 35.0872 16.0353C34.6391 15.8296 34.2551 15.5596 33.935 15.2124C33.6149 14.8653 33.3589 14.4538 33.1924 13.991C33.0132 13.5281 32.9236 13.0267 32.9236 12.4995C32.9236 11.9724 33.0132 11.471 33.1924 11.0081C33.3717 10.5452 33.6149 10.1338 33.935 9.78665C34.2551 9.43951 34.6391 9.15665 35.0872 8.96379C35.5353 8.75807 36.0346 8.65521 36.5723 8.65521C37.1101 8.65521 37.6094 8.75807 38.0575 8.96379C38.5056 9.16951 38.8896 9.43951 39.2097 9.78665C39.5298 10.1338 39.7858 10.5452 39.9523 11.0081C40.1315 11.471 40.2211 11.9724 40.2211 12.4995C40.2211 13.0267 40.1315 13.5281 39.9523 13.991C39.773 14.4538 39.5298 14.8653 39.2097 15.2124C38.8896 15.5596 38.5056 15.8424 38.0575 16.0353C37.6094 16.241 37.1101 16.3439 36.5723 16.3439ZM36.5723 9.18236C36.1114 9.18236 35.6762 9.27236 35.3049 9.43951C34.9208 9.60665 34.5879 9.85094 34.3191 10.1467C34.0374 10.4424 33.8198 10.8024 33.6789 11.201C33.5253 11.5995 33.4485 12.0367 33.4485 12.4995C33.4485 12.9624 33.5253 13.3995 33.6789 13.7981C33.8326 14.1967 34.0502 14.5567 34.3191 14.8524C34.5879 15.1481 34.9208 15.3924 35.3049 15.5596C35.689 15.7267 36.1114 15.8167 36.5723 15.8167C37.0332 15.8167 37.4685 15.7267 37.8398 15.5596C38.2239 15.3924 38.5568 15.1481 38.8256 14.8524C39.1073 14.5567 39.3121 14.1967 39.4658 13.7981C39.6194 13.3995 39.6962 12.9624 39.6962 12.4995C39.6962 12.0367 39.6194 11.5995 39.4658 11.201C39.3121 10.8024 39.0945 10.4424 38.8256 10.1467C38.5568 9.85094 38.2239 9.60665 37.8398 9.43951C37.4685 9.27236 37.0332 9.18236 36.5723 9.18236Z"
        fill="#242428" />
    <path
        d="M49.6311 9.967C49.3751 9.61985 49.055 9.34985 48.6709 9.1827C48.2868 9.0027 47.8899 8.92556 47.4803 8.92556C47.0066 8.92556 46.5585 9.02842 46.1616 9.22128C45.7647 9.41413 45.419 9.68414 45.1246 10.0056C44.8301 10.3399 44.6125 10.7127 44.446 11.1499C44.2796 11.587 44.2028 12.037 44.2028 12.5127C44.2028 13.0142 44.2796 13.4899 44.446 13.9142C44.6125 14.3513 44.8301 14.7242 45.1246 15.0456C45.4062 15.367 45.7519 15.6242 46.1616 15.8042C46.5585 15.997 47.0066 16.087 47.4931 16.087C48.018 16.087 48.4917 15.9842 48.9014 15.7785C49.311 15.5728 49.6695 15.277 49.9768 14.8785L50.745 15.5213C50.3609 16.0356 49.8872 16.4213 49.3495 16.6656C48.7989 16.9099 48.1844 17.0256 47.5059 17.0256C46.8913 17.0256 46.3152 16.9099 45.7775 16.6785C45.2398 16.4471 44.7789 16.1385 44.3948 15.7399C43.9979 15.3413 43.6907 14.8656 43.473 14.3127C43.2554 13.7599 43.1401 13.1556 43.1401 12.4999C43.1401 11.8699 43.2426 11.2784 43.4602 10.7256C43.6779 10.1727 43.9723 9.69699 44.3692 9.28556C44.7533 8.87413 45.2142 8.5527 45.7519 8.32127C46.2896 8.08984 46.8657 7.97412 47.5059 7.97412C48.082 7.97412 48.6453 8.07698 49.183 8.29555C49.7207 8.50127 50.1688 8.84841 50.5401 9.33699L49.6311 9.967Z"
        fill="#242428" />
    <path
        d="M47.4802 17.2954C46.84 17.2954 46.2255 17.1797 45.6622 16.9354C45.0989 16.6912 44.5996 16.3569 44.1899 15.9326C43.7802 15.5083 43.4473 14.994 43.2169 14.4154C42.9864 13.8368 42.8584 13.194 42.8584 12.4997C42.8584 11.8311 42.9736 11.2011 43.1913 10.6225C43.4217 10.044 43.7418 9.52967 44.1515 9.10538C44.5612 8.68109 45.0477 8.33395 45.611 8.08966C46.1743 7.84537 46.8016 7.7168 47.4674 7.7168C48.0819 7.7168 48.6708 7.83251 49.2341 8.05109C49.8103 8.28252 50.3096 8.65538 50.6937 9.16967L50.8473 9.37538L49.5414 10.3268L49.3878 10.1211C49.1573 9.81253 48.8629 9.56824 48.53 9.41396C48.1843 9.25967 47.8259 9.16967 47.4418 9.16967C47.0065 9.16967 46.5968 9.25967 46.2383 9.43967C45.867 9.61967 45.547 9.86396 45.2781 10.1597C45.0092 10.4682 44.7916 10.8154 44.6508 11.2268C44.4971 11.6254 44.4203 12.0625 44.4203 12.4997C44.4203 12.9754 44.4971 13.4126 44.6508 13.8111C44.8044 14.2097 45.0092 14.5697 45.2781 14.8654C45.5342 15.1611 45.8542 15.3926 46.2255 15.5597C46.584 15.7269 46.9937 15.8169 47.4418 15.8169C47.9283 15.8169 48.3636 15.7269 48.7348 15.534C49.1061 15.3411 49.4518 15.0711 49.7335 14.7111L49.8999 14.5054L51.0521 15.4826L50.9113 15.6754C50.5016 16.2283 49.9895 16.6397 49.4134 16.8969C48.8629 17.1669 48.1971 17.2954 47.4802 17.2954ZM47.4802 8.23109C46.8784 8.23109 46.3279 8.3468 45.8286 8.56538C45.3293 8.78395 44.894 9.09252 44.5228 9.46538C44.1643 9.8511 43.8698 10.3011 43.6778 10.8154C43.4729 11.3297 43.3705 11.8954 43.3705 12.4997C43.3705 13.1168 43.4729 13.6954 43.6906 14.2226C43.8954 14.7369 44.1899 15.1997 44.5612 15.5726C44.9324 15.9454 45.3677 16.2412 45.867 16.4597C46.3663 16.6783 46.9169 16.7812 47.493 16.7812C48.1459 16.7812 48.722 16.6654 49.2341 16.434C49.6694 16.2412 50.0535 15.9454 50.3864 15.5597L50.0023 15.2383C49.7078 15.5597 49.375 15.8169 49.0037 15.9969C48.5556 16.2154 48.0435 16.3312 47.4802 16.3312C46.9553 16.3312 46.4816 16.2283 46.0463 16.0226C45.611 15.8169 45.2397 15.5469 44.9324 15.1997C44.6252 14.8526 44.3819 14.454 44.2155 13.9911C44.049 13.5283 43.9594 13.0268 43.9594 12.4997C43.9594 11.9983 44.049 11.5097 44.2155 11.0468C44.3819 10.584 44.638 10.1725 44.9452 9.82539C45.2525 9.47824 45.6366 9.18252 46.0591 8.97681C46.4944 8.77109 46.9681 8.65538 47.4802 8.65538C47.9283 8.65538 48.3636 8.74538 48.7732 8.93824C49.1189 9.09252 49.4134 9.32395 49.6694 9.60681L50.1431 9.25967C49.8359 8.92538 49.4774 8.66824 49.0677 8.51395C48.5556 8.33395 48.0307 8.23109 47.4802 8.23109Z"
        fill="#242428" />
    <path d="M53.0623 8.19287H54.0865V16.8201H53.0623V8.19287Z" fill="#242428" />
    <path d="M54.3298 17.0761H52.7935V7.93457H54.3298V17.0761ZM53.3184 16.5618H53.8305V8.44886H53.3184V16.5618Z"
        fill="#242428" />
    <path
        d="M59.9116 8.19287H60.8718L64.5205 16.8201H63.3299L62.4593 14.6986H58.1704L57.287 16.8201H56.1348L59.9116 8.19287ZM60.3725 9.50431H60.3469L58.5673 13.7472H62.0752L60.3725 9.50431Z"
        fill="#242428" />
    <path
        d="M64.9048 17.0761H63.1636L62.293 14.9546H58.337L57.4536 17.0761H55.738L59.7453 7.93457H61.0384L64.9048 17.0761ZM63.4965 16.5618H64.1238L60.6927 8.44886H60.0654L56.5062 16.5618H57.0951L57.9785 14.4403H62.6131L63.4965 16.5618ZM62.4467 14.0032H58.1706L60.1678 9.24601H60.5391L62.4467 14.0032ZM58.9515 13.4889H61.6913L60.3598 10.1589L58.9515 13.4889Z"
        fill="#242428" />
    <path d="M66.5691 8.19287H67.5933V15.8686H71.5237V16.8201H66.5819V8.19287H66.5691Z" fill="#242428" />
    <path
        d="M71.7669 17.0761H66.313V7.93457H67.8493V15.6103H71.7797V17.0761H71.7669ZM66.8251 16.5618H71.2548V16.1246H67.3244V8.44886H66.8123V16.5618H66.8251Z"
        fill="#242428" />
    <path
        d="M77.2688 8.17969H80.5719C80.8536 8.17969 81.148 8.21826 81.4681 8.28255C81.7882 8.34683 82.0954 8.44969 82.4027 8.59112C82.7099 8.73255 83.0172 8.91255 83.2989 9.14398C83.5805 9.37541 83.8366 9.64542 84.0542 9.96685C84.2719 10.2883 84.4511 10.6611 84.5791 11.0726C84.7072 11.4969 84.7712 11.9597 84.7712 12.4869C84.7712 13.014 84.7072 13.4897 84.5791 13.9012C84.4511 14.3255 84.2719 14.6855 84.0542 15.0069C83.8366 15.3283 83.5805 15.5983 83.2989 15.8298C83.0172 16.0612 82.7099 16.2412 82.4027 16.3826C82.0954 16.524 81.7754 16.6269 81.4681 16.6912C81.148 16.7555 80.8536 16.794 80.5719 16.794H77.2688V8.17969ZM78.2802 15.8555H80.2262C80.7255 15.8555 81.1736 15.7912 81.5961 15.6626C82.0186 15.534 82.3771 15.3283 82.6843 15.0583C82.9916 14.7883 83.2349 14.4412 83.4141 14.0169C83.5933 13.5926 83.683 13.0912 83.683 12.4997C83.683 11.9083 83.5933 11.394 83.4141 10.9826C83.2349 10.5583 82.9916 10.2111 82.6843 9.94113C82.3771 9.67113 82.0186 9.46541 81.5961 9.33684C81.1736 9.20827 80.7127 9.14398 80.2262 9.14398H78.2802V15.8555Z"
        fill="#242428" />
    <path
        d="M80.5592 17.0512H77V7.90967H80.5592C80.8536 7.90967 81.1737 7.94824 81.5066 8.01252C81.8394 8.07681 82.1723 8.19253 82.5052 8.34681C82.838 8.5011 83.1581 8.69396 83.4526 8.93825C83.7598 9.18254 84.0287 9.47825 84.2591 9.81254C84.4896 10.1468 84.6816 10.5454 84.8097 10.9954C84.9505 11.4326 85.0145 11.934 85.0145 12.4868C85.0145 13.0397 84.9505 13.5411 84.8097 13.9783C84.6688 14.4154 84.4896 14.814 84.2591 15.1612C84.0287 15.5083 83.7598 15.804 83.4526 16.0354C83.1453 16.2797 82.8252 16.4726 82.5052 16.6269C82.1723 16.7812 81.8394 16.884 81.5066 16.9612C81.1865 17.0255 80.8664 17.0512 80.5592 17.0512ZM77.5249 16.5369H80.572C80.8408 16.5369 81.1225 16.5112 81.4169 16.4469C81.7114 16.3826 82.0059 16.2926 82.3003 16.1512C82.5948 16.0226 82.8764 15.8426 83.1453 15.624C83.4142 15.4183 83.6446 15.1612 83.8494 14.8526C84.0543 14.5569 84.2207 14.2097 84.336 13.8111C84.4512 13.4254 84.5152 12.9626 84.5152 12.474C84.5152 11.9726 84.4512 11.5226 84.336 11.1368C84.2207 10.7511 84.0543 10.3911 83.8494 10.0954C83.6446 9.79968 83.4142 9.54254 83.1453 9.32397C82.8764 9.10539 82.5948 8.93825 82.3003 8.79682C82.0059 8.66824 81.7114 8.56538 81.4169 8.5011C81.1225 8.43681 80.8408 8.4111 80.572 8.4111H77.5249V16.5369ZM80.2263 16.1126H78.0242V8.87396H80.2263C80.7384 8.87396 81.2249 8.93824 81.673 9.07967C82.1211 9.2211 82.5308 9.43968 82.8636 9.7354C83.1965 10.0311 83.4654 10.4168 83.6574 10.8668C83.8494 11.3168 83.9391 11.8697 83.9391 12.4868C83.9391 13.1169 83.8366 13.6569 83.6574 14.1069C83.4654 14.5569 83.1965 14.9426 82.8636 15.2383C82.5308 15.534 82.1339 15.7526 81.673 15.894C81.2249 16.0354 80.7384 16.1126 80.2263 16.1126ZM78.5363 15.5983H80.2263C80.6872 15.5983 81.1225 15.534 81.5194 15.4183C81.9034 15.3026 82.2363 15.1097 82.518 14.8654C82.7996 14.6212 83.0173 14.2997 83.1837 13.914C83.3501 13.5283 83.427 13.0526 83.427 12.4868C83.427 11.934 83.3501 11.4583 83.1837 11.0597C83.0173 10.674 82.7996 10.3525 82.518 10.1083C82.2363 9.86397 81.9034 9.67111 81.5194 9.55539C81.1225 9.43968 80.6872 9.37539 80.2263 9.37539H78.5363V15.5983Z"
        fill="#242428" />
    <path
        d="M90.1101 8.17969H91.0703L94.719 16.8069H93.5284L92.6578 14.6855H88.3689L87.4855 16.8069H86.3333L90.1101 8.17969ZM90.5709 9.49113H90.5453L88.7658 13.734H92.2737L90.5709 9.49113Z"
        fill="#242428" />
    <path
        d="M95.103 17.0512H93.3619L92.4913 14.9297H88.5352L87.6518 17.0512H85.9363L89.9435 7.90967H91.2366L95.103 17.0512ZM93.6947 16.5369H94.3221L90.8909 8.42396H90.2636L86.7044 16.5369H87.2934L88.1768 14.4154H92.8113L93.6947 16.5369ZM92.6449 13.9911H88.3688L90.366 9.23396H90.7373L92.6449 13.9911ZM89.1498 13.4769H91.8895L90.5581 10.1468L89.1498 13.4769Z"
        fill="#242428" />
    <path
        d="M96.7673 8.17969H98.0476L103.015 15.3412H103.041V8.17969H104.065V16.8069H102.785L97.8172 9.64542H97.7916V16.8069H96.7673V8.17969Z"
        fill="#242428" />
    <path
        d="M104.321 17.0512H102.644L98.0349 10.4168V17.0512H96.4985V7.90967H98.1757L102.785 14.544V7.90967H104.321V17.0512ZM102.913 16.5369H103.809V8.42396H103.297V15.5983H102.887L97.9196 8.43681H97.0234V16.5497H97.5356V9.38825H97.9452L102.913 16.5369Z"
        fill="#242428" />
    <path
        d="M113.129 9.9543C112.873 9.60715 112.553 9.33715 112.169 9.17001C111.785 8.99001 111.388 8.91286 110.978 8.91286C110.505 8.91286 110.057 9.01572 109.66 9.20858C109.263 9.40144 108.917 9.67144 108.623 9.99287C108.328 10.3272 108.11 10.7 107.944 11.1372C107.778 11.5743 107.701 12.0243 107.701 12.5C107.701 13.0015 107.778 13.4772 107.944 13.9015C108.11 14.3386 108.328 14.7115 108.623 15.0329C108.904 15.3543 109.25 15.6115 109.66 15.7915C110.057 15.9843 110.505 16.0744 110.991 16.0744C111.516 16.0744 111.99 15.9715 112.399 15.7658C112.809 15.5601 113.168 15.2643 113.475 14.8658L114.243 15.5086C113.859 16.0229 113.385 16.4086 112.847 16.6529C112.297 16.8972 111.682 17.0129 111.004 17.0129C110.389 17.0129 109.813 16.8972 109.276 16.6658C108.738 16.4344 108.277 16.1258 107.893 15.7272C107.496 15.3286 107.189 14.8529 106.971 14.3C106.753 13.7472 106.638 13.1429 106.638 12.4872C106.638 11.8572 106.741 11.2657 106.958 10.7129C107.176 10.16 107.47 9.6843 107.867 9.27286C108.251 8.86143 108.712 8.54 109.25 8.30857C109.788 8.07714 110.364 7.96143 111.004 7.96143C111.58 7.96143 112.143 8.06428 112.681 8.28286C113.219 8.48857 113.667 8.83572 114.038 9.3243L113.129 9.9543Z"
        fill="#242428" />
    <path
        d="M110.978 17.2828C110.338 17.2828 109.724 17.167 109.16 16.9227C108.597 16.6785 108.098 16.3442 107.688 15.9199C107.278 15.4956 106.946 14.9813 106.715 14.4027C106.485 13.8242 106.357 13.1813 106.357 12.487C106.357 11.8184 106.472 11.1884 106.69 10.6098C106.92 10.0313 107.24 9.51697 107.65 9.09268C108.059 8.66839 108.546 8.32125 109.109 8.07696C109.673 7.83267 110.3 7.7041 110.966 7.7041C111.58 7.7041 112.169 7.81982 112.732 8.03839C113.309 8.26982 113.808 8.64268 114.192 9.15697L114.346 9.36269L113.04 10.3141L112.886 10.1084C112.656 9.79983 112.361 9.55554 112.028 9.40126C111.683 9.24697 111.324 9.15697 110.94 9.15697C110.505 9.15697 110.095 9.24697 109.737 9.42697C109.365 9.60697 109.045 9.85126 108.776 10.147C108.508 10.4556 108.29 10.8027 108.149 11.2141C107.995 11.6127 107.919 12.0498 107.919 12.487C107.919 12.9627 107.995 13.3999 108.149 13.7984C108.303 14.197 108.508 14.557 108.776 14.8527C109.032 15.1485 109.353 15.3799 109.724 15.547C110.082 15.7142 110.492 15.8042 110.94 15.8042C111.427 15.8042 111.862 15.7142 112.233 15.5213C112.604 15.3284 112.95 15.0584 113.232 14.6984L113.398 14.4927L114.55 15.4699L114.41 15.6627C114 16.2156 113.488 16.627 112.912 16.8842C112.361 17.1413 111.695 17.2828 110.978 17.2828ZM110.978 8.21839C110.377 8.21839 109.826 8.33411 109.327 8.55268C108.828 8.77125 108.392 9.07983 108.021 9.45269C107.663 9.83841 107.368 10.2884 107.176 10.8027C106.971 11.317 106.869 11.8827 106.869 12.487C106.869 13.1041 106.971 13.6827 107.189 14.2099C107.394 14.7242 107.688 15.187 108.059 15.5599C108.431 15.9327 108.866 16.2285 109.365 16.447C109.865 16.6656 110.415 16.7685 110.991 16.7685C111.644 16.7685 112.22 16.6527 112.732 16.4213C113.168 16.2285 113.552 15.9327 113.885 15.547L113.501 15.2256C113.206 15.547 112.873 15.8042 112.502 15.9842C112.054 16.2027 111.542 16.3185 110.978 16.3185C110.454 16.3185 109.98 16.2156 109.545 16.0099C109.109 15.8042 108.738 15.5342 108.431 15.187C108.123 14.8399 107.88 14.4413 107.714 13.9784C107.547 13.5156 107.458 13.0141 107.458 12.487C107.458 11.9856 107.547 11.497 107.714 11.0341C107.88 10.5713 108.136 10.1598 108.444 9.81269C108.751 9.46554 109.135 9.16983 109.557 8.96411C109.993 8.75839 110.466 8.64268 110.978 8.64268C111.427 8.64268 111.862 8.73268 112.272 8.92554C112.617 9.07983 112.912 9.31126 113.168 9.59412L113.641 9.24697C113.334 8.91268 112.976 8.65554 112.566 8.50125C112.054 8.32125 111.529 8.21839 110.978 8.21839Z"
        fill="#242428" />
    <path
        d="M116.56 8.17969H121.963V9.13113H117.585V11.8311H121.669V12.7826H117.585V15.8555H122.181V16.8069H116.56V8.17969Z"
        fill="#242428" />
    <path
        d="M122.424 17.0512H116.292V7.90967H122.206V9.37539H117.828V11.5611H121.912V13.0269H117.828V15.5983H122.424V17.0512ZM116.816 16.5369H121.925V16.1126H117.329V12.5254H121.413V12.0883H117.329V8.87396H121.707V8.43681H116.816V16.5369Z"
        fill="#242428" />
    <path d="M135.964 8.9H133.122V16.5758H132.098V8.9H129.256V7.96143H135.952V8.9H135.964Z" fill="#242428" />
    <path
        d="M133.379 16.8328H131.842V9.15697H129V7.7041H136.208V9.16983H133.366V16.8328H133.379ZM132.367 16.3185H132.879V8.64268H135.721V8.21839H129.538V8.65554H132.38V16.3185H132.367Z"
        fill="#242428" />
    <path
        d="M136.899 7.96143H138.051L140.689 15.0458H140.714L143.441 7.96143H144.517L141.162 16.5758H140.177L136.899 7.96143Z"
        fill="#242428" />
    <path
        d="M141.342 16.8328H140.01L136.528 7.7041H138.231L140.714 14.3642L143.275 7.7041H144.901L141.342 16.8328ZM140.356 16.3185H140.983L144.145 8.20553H143.621L140.894 15.2899H140.522L137.872 8.21839H137.27L140.356 16.3185Z"
        fill="#242428" />
    <path d="M7 6V19L16 12.5L7 6Z" fill="#FB4C4C" />
    <rect x="0.5" y="0.5" width="151" height="24" stroke="#242428" />
</svg>
