<svg width="56" height="16" viewBox="0 0 56 16" fill="none" xmlns="http://www.w3.org/2000/svg">
<g clip-path="url(#clip0)">
<path d="M20.8695 3.56775H17.7809C17.6787 3.56768 17.5798 3.60438 17.502 3.67121C17.4243 3.73805 17.3728 3.83064 17.3569 3.93229L16.1077 11.9037C16.102 11.9406 16.1042 11.9785 16.1144 12.0145C16.1246 12.0505 16.1424 12.0838 16.1666 12.1123C16.1908 12.1407 16.2208 12.1635 16.2546 12.1791C16.2884 12.1947 16.3252 12.2028 16.3624 12.2027H17.8369C17.9392 12.2028 18.0382 12.166 18.116 12.0991C18.1937 12.0322 18.2452 11.9395 18.261 11.8377L18.5979 9.68775C18.6137 9.58609 18.6651 9.49345 18.7427 9.42653C18.8204 9.35961 18.9193 9.32281 19.0215 9.32275H19.9992C22.0338 9.32275 23.208 8.33184 23.5146 6.3682C23.6528 5.50911 23.5205 4.83411 23.1208 4.36139C22.6818 3.84229 21.9032 3.56775 20.8695 3.56775ZM21.2258 6.47911C21.0569 7.59457 20.2102 7.59457 19.3914 7.59457H18.9253L19.2523 5.51139C19.2619 5.45044 19.2927 5.39493 19.3393 5.35485C19.3859 5.31477 19.4452 5.29275 19.5065 5.29275H19.7202C20.2779 5.29275 20.804 5.29275 21.0759 5.61275C21.238 5.80366 21.2877 6.08729 21.2258 6.47911ZM30.1018 6.4432H28.6228C28.5615 6.4432 28.5022 6.46523 28.4556 6.50531C28.409 6.54539 28.3781 6.60089 28.3685 6.66184L28.3031 7.0782L28.1996 6.92729C27.8794 6.45957 27.1654 6.3032 26.4528 6.3032C24.8184 6.3032 23.4225 7.54911 23.1506 9.29684C23.0093 10.1687 23.2102 11.0023 23.7016 11.5837C24.1523 12.1182 24.7972 12.3409 25.5645 12.3409C26.8814 12.3409 27.6116 11.4887 27.6116 11.4887L27.5457 11.9023C27.5398 11.9393 27.542 11.9771 27.552 12.0132C27.5621 12.0492 27.5798 12.0827 27.6039 12.1112C27.628 12.1397 27.658 12.1626 27.6918 12.1783C27.7255 12.1941 27.7623 12.2022 27.7995 12.2023H29.1318C29.2341 12.2023 29.333 12.1656 29.4108 12.0987C29.4886 12.0317 29.54 11.939 29.5558 11.8373L30.3552 6.74229C30.3611 6.70539 30.3589 6.66765 30.3489 6.63167C30.3389 6.59568 30.3212 6.56232 30.2971 6.53388C30.273 6.50544 30.2431 6.4826 30.2094 6.46695C30.1757 6.45129 30.139 6.44319 30.1018 6.4432ZM28.0402 9.34048C27.8975 10.1909 27.2269 10.7618 26.3715 10.7618C25.942 10.7618 25.5988 10.6232 25.3784 10.3605C25.1598 10.0996 25.0767 9.7282 25.1463 9.31457C25.2795 8.47139 25.9614 7.88184 26.8037 7.88184C27.2237 7.88184 27.5651 8.02229 27.79 8.28729C28.0154 8.55502 28.1048 8.92866 28.0402 9.34048ZM37.9789 6.4432H36.4926C36.4225 6.44332 36.3535 6.46064 36.2916 6.49367C36.2296 6.5267 36.1766 6.57444 36.1372 6.63275L34.0873 9.67184L33.2184 6.75139C33.1917 6.66231 33.1373 6.58425 33.0631 6.52874C32.9889 6.47324 32.899 6.44325 32.8065 6.4432H31.346C31.305 6.44309 31.2646 6.45284 31.2281 6.47163C31.1916 6.49043 31.1601 6.51772 31.1362 6.55125C31.1123 6.58478 31.0967 6.62356 31.0907 6.66438C31.0847 6.7052 31.0885 6.74688 31.1017 6.78593L32.7388 11.6214L31.1997 13.8082C31.1723 13.847 31.1561 13.8926 31.1528 13.94C31.1495 13.9874 31.1592 14.0349 31.1809 14.0771C31.2026 14.1194 31.2354 14.1548 31.2758 14.1795C31.3161 14.2042 31.3625 14.2173 31.4097 14.2173H32.8942C32.9635 14.2174 33.0318 14.2006 33.0932 14.1683C33.1546 14.136 33.2074 14.0892 33.2469 14.0318L38.1902 6.85002C38.217 6.81117 38.2327 6.76567 38.2357 6.71847C38.2386 6.67126 38.2286 6.62415 38.2069 6.58224C38.1851 6.54032 38.1523 6.50521 38.1121 6.4807C38.0719 6.45619 38.0259 6.44323 37.9789 6.4432Z" fill="#253B80"/>
<path d="M42.8997 3.56775H39.8107C39.7085 3.56779 39.6097 3.60453 39.5321 3.67136C39.4544 3.73819 39.403 3.83071 39.3871 3.93229L38.1379 11.9037C38.1321 11.9406 38.1343 11.9783 38.1444 12.0143C38.1545 12.0503 38.1722 12.0837 38.1963 12.1121C38.2205 12.1405 38.2504 12.1633 38.2842 12.179C38.3179 12.1946 38.3546 12.2027 38.3917 12.2027H39.9769C40.0484 12.2026 40.1175 12.1769 40.1718 12.13C40.2262 12.0832 40.2621 12.0184 40.2732 11.9473L40.6277 9.68775C40.6435 9.58608 40.6949 9.49345 40.7725 9.42653C40.8502 9.35961 40.949 9.32281 41.0513 9.32275H42.0286C44.0635 9.32275 45.2373 8.33184 45.5444 6.3682C45.683 5.50911 45.5498 4.83411 45.1501 4.36138C44.7116 3.84229 43.9335 3.56775 42.8997 3.56775ZM43.2561 6.47911C43.0876 7.59456 42.2408 7.59456 41.4216 7.59456H40.956L41.2834 5.51138C41.2928 5.45043 41.3236 5.39488 41.3701 5.35478C41.4167 5.31467 41.4759 5.29267 41.5372 5.29275H41.7508C42.3081 5.29275 42.8347 5.29275 43.1066 5.61275C43.2687 5.80365 43.3179 6.08729 43.2561 6.47911ZM52.1316 6.4432H50.6535C50.5922 6.44303 50.5328 6.465 50.4863 6.50512C50.4397 6.54524 50.409 6.60085 50.3997 6.66184L50.3342 7.0782L50.2303 6.92729C49.9101 6.45956 49.1966 6.3032 48.4839 6.3032C46.8495 6.3032 45.4541 7.54911 45.1822 9.29684C45.0413 10.1687 45.2413 11.0023 45.7327 11.5837C46.1843 12.1182 46.8283 12.3409 47.5956 12.3409C48.9125 12.3409 49.6428 11.4887 49.6428 11.4887L49.5768 11.9023C49.5709 11.9393 49.5731 11.9773 49.5832 12.0134C49.5933 12.0495 49.6111 12.083 49.6353 12.1115C49.6595 12.14 49.6896 12.1629 49.7235 12.1786C49.7574 12.1943 49.7943 12.2024 49.8315 12.2023H51.1634C51.2656 12.2022 51.3644 12.1654 51.4421 12.0985C51.5198 12.0316 51.5711 11.939 51.587 11.8373L52.3868 6.74229C52.3924 6.70528 52.3901 6.66746 52.3799 6.63145C52.3696 6.59544 52.3518 6.56208 52.3276 6.53366C52.3033 6.50525 52.2732 6.48245 52.2394 6.46683C52.2056 6.45122 52.1688 6.44316 52.1316 6.4432ZM50.07 9.34047C49.9282 10.1909 49.2566 10.7618 48.4013 10.7618C47.9727 10.7618 47.6286 10.6232 47.4082 10.3605C47.1896 10.0996 47.1074 9.7282 47.1761 9.31456C47.3102 8.47138 47.9912 7.88184 48.8335 7.88184C49.2535 7.88184 49.5949 8.02229 49.8198 8.28729C50.0461 8.55502 50.1355 8.92865 50.07 9.34047ZM53.8753 3.78638L52.6076 11.9037C52.6018 11.9406 52.604 11.9783 52.6141 12.0143C52.6242 12.0503 52.6419 12.0837 52.666 12.1121C52.6901 12.1405 52.7201 12.1633 52.7538 12.179C52.7876 12.1946 52.8243 12.2027 52.8614 12.2027H54.1359C54.3477 12.2027 54.5274 12.0482 54.5599 11.8377L55.81 3.86684C55.8158 3.82989 55.8136 3.79211 55.8035 3.75611C55.7934 3.7201 55.7757 3.68672 55.7516 3.65826C55.7275 3.6298 55.6975 3.60693 55.6638 3.59123C55.6301 3.57552 55.5934 3.56736 55.5562 3.56729H54.1291C54.0678 3.56751 54.0086 3.58968 53.9621 3.62982C53.9156 3.66997 53.8848 3.72547 53.8753 3.78638Z" fill="#179BD7"/>
<path d="M3.28138 13.7518L3.51758 12.2418L2.99145 12.2295H0.479126L2.22506 1.08721C2.23026 1.05317 2.24744 1.02214 2.27347 0.999776C2.2995 0.977415 2.33265 0.965213 2.36687 0.965395H6.603C8.00932 0.965395 8.97983 1.25994 9.48654 1.8413C9.72409 2.11403 9.87538 2.39903 9.94854 2.71267C10.0253 3.04176 10.0267 3.43494 9.9517 3.91449L9.94629 3.94949V4.25676L10.1838 4.39221C10.3652 4.48469 10.5282 4.60978 10.6648 4.7613C10.868 4.99449 10.9994 5.29085 11.055 5.64221C11.1124 6.00358 11.0934 6.43358 10.9994 6.9204C10.8911 7.4804 10.7158 7.96812 10.4792 8.36721C10.2704 8.72473 9.98966 9.03439 9.655 9.27631C9.34067 9.50085 8.96719 9.6713 8.54493 9.7804C8.13577 9.88767 7.66925 9.94176 7.15758 9.94176H6.8279C6.59216 9.94176 6.36319 10.0272 6.18345 10.1804C6.00396 10.3352 5.88489 10.5491 5.84745 10.784L5.82261 10.9199L5.40532 13.5813L5.38635 13.679C5.38138 13.7099 5.3728 13.7254 5.36016 13.7359C5.34791 13.7459 5.33263 13.7515 5.3168 13.7518H3.28138Z" fill="#253B80"/>
<path d="M10.4088 3.985C10.3962 4.06636 10.3817 4.14955 10.3655 4.235C9.80684 7.12182 7.89561 8.11909 5.45464 8.11909H4.2118C3.91329 8.11909 3.66174 8.33727 3.61522 8.63364L2.9789 12.6955L2.7987 13.8468C2.79153 13.8925 2.79427 13.9392 2.80674 13.9837C2.81921 14.0282 2.84111 14.0694 2.87094 14.1046C2.90077 14.1398 2.93782 14.168 2.97953 14.1874C3.02125 14.2068 3.06664 14.2168 3.11258 14.2168H5.3169C5.57793 14.2168 5.79967 14.0259 5.84077 13.7668L5.86245 13.6541L6.27748 11.0032L6.30412 10.8577C6.34477 10.5977 6.56696 10.4068 6.828 10.4068H7.15767C9.29335 10.4068 10.9652 9.53409 11.4539 7.00864C11.658 5.95364 11.5523 5.07273 11.0122 4.45318C10.841 4.26153 10.6365 4.10288 10.4088 3.985Z" fill="#179BD7"/>
<path d="M9.82434 3.75037C9.64596 3.69843 9.4645 3.65789 9.28105 3.629C8.91855 3.57293 8.55218 3.54603 8.18543 3.54855H4.86518C4.73882 3.54845 4.61659 3.59385 4.5206 3.67655C4.4246 3.75925 4.36116 3.87379 4.34176 3.99946L3.63543 8.50219L3.61511 8.63355C3.63712 8.49021 3.70937 8.35953 3.81879 8.26515C3.92822 8.17077 4.06759 8.11893 4.21169 8.119H5.45453C7.8955 8.119 9.80673 7.12128 10.3654 4.23491C10.3821 4.14946 10.3961 4.06628 10.4087 3.98491C10.2613 3.90711 10.1077 3.84188 9.94943 3.78991C9.90795 3.77606 9.86624 3.76287 9.82434 3.75037Z" fill="#222D65"/>
<path d="M4.34189 3.99955C4.36113 3.87384 4.42453 3.75925 4.52058 3.67659C4.61662 3.59394 4.73894 3.5487 4.86531 3.54909H8.18557C8.57892 3.54909 8.94608 3.575 9.28118 3.62955C9.50794 3.66541 9.73156 3.71906 9.95002 3.79C10.1149 3.845 10.268 3.91 10.4093 3.985C10.5755 2.91818 10.408 2.19182 9.83486 1.53409C9.20305 0.81 8.06273 0.5 6.60357 0.5H2.36744C2.06937 0.5 1.81511 0.718182 1.76905 1.015L0.00459742 12.2718C-0.0036211 12.3241 -0.00049423 12.3775 0.0137629 12.4284C0.0280201 12.4794 0.0530692 12.5266 0.0871872 12.5669C0.121305 12.6071 0.163682 12.6395 0.211404 12.6617C0.259125 12.6839 0.311058 12.6954 0.36363 12.6955H2.97892L3.63557 8.50227L4.34189 3.99955Z" fill="#253B80"/>
</g>
<defs>
<clipPath id="clip0">
<rect width="56" height="15" fill="white" transform="translate(0 0.5)"/>
</clipPath>
</defs>
</svg>
