<svg viewBox="0 0 24 21" fill="none" xmlns="http://www.w3.org/2000/svg">
<path fill-rule="evenodd" clip-rule="evenodd" d="M12 20.1198C11.6814 20.1902 11.3359 20.1694 10.9999 20.0329L10.791 19.948C7.98805 18.8093 4.92816 18.4545 1.93902 18.9215C0.920316 19.0807 -3.38023e-08 18.293 0 17.262L4.74032e-07 2.80253C5.01277e-07 1.97148 0.605306 1.26425 1.4264 1.13596C4.95953 0.583907 8.57629 1.0033 11.8893 2.34922L12 2.39419L12.1107 2.34922C15.4237 1.0033 19.0405 0.583907 22.5736 1.13596C23.3947 1.26425 24 1.97148 24 2.80253V17.262C24 18.293 23.0797 19.0807 22.061 18.9215C19.0719 18.4545 16.012 18.8093 13.209 19.948L13.0001 20.0329C12.6641 20.1694 12.3187 20.1902 12 20.1198ZM2.66667 3.66192C5.37763 3.37355 8.12151 3.73939 10.6667 4.73259V17.0595C8.09408 16.1964 5.36817 15.8842 2.66667 16.1433L2.66667 3.66192ZM13.3334 4.73259C15.8785 3.73939 18.6224 3.37355 21.3334 3.66192L21.3334 16.1433C18.6318 15.8842 15.9059 16.1964 13.3334 17.0595V4.73259Z" />
</svg>
