<svg width="18" height="14" viewBox="0 0 18 14" fill="none" xmlns="http://www.w3.org/2000/svg">
<path d="M4 9C4 8.44771 4.44772 8 5 8L9 8C9.55229 8 10 8.44771 10 9C10 9.55229 9.55229 10 9 10H5C4.44772 10 4 9.55228 4 9Z" fill="#242428"/>
<path d="M14 9C14 9.55228 13.5523 10 13 10C12.4477 10 12 9.55228 12 9C12 8.44771 12.4477 8 13 8C13.5523 8 14 8.44771 14 9Z" fill="#242428"/>
<path fill-rule="evenodd" clip-rule="evenodd" d="M15 0C16.6569 0 18 1.34315 18 3V11C18 12.6569 16.6569 14 15 14H3C1.34315 14 0 12.6569 0 11V3C0 1.34315 1.34315 0 3 0H15ZM16 3C16 2.44772 15.5523 2 15 2L3 2C2.44772 2 2 2.44772 2 3L2 11C2 11.5523 2.44772 12 3 12H15C15.5523 12 16 11.5523 16 11L16 3Z" fill="#242428"/>
</svg>
