<svg width="21" height="17" viewBox="0 0 21 17" fill="none" xmlns="http://www.w3.org/2000/svg">
<path fill-rule="evenodd" clip-rule="evenodd" d="M5.0892 14.7288C3.7262 14.7817 2.44833 13.8922 2.07702 12.5065L0.551759 6.81412C0.122933 5.21372 1.07268 3.56871 2.67308 3.13989L12.3323 0.551698C13.9327 0.122872 15.5777 1.07262 16.0066 2.67302L16.6301 4.99999H18.0001C19.6569 4.99999 21.0001 6.34313 21.0001 7.99999V14C21.0001 15.6568 19.6569 17 18.0001 17H8.00006C6.59455 17 5.41479 16.0334 5.0892 14.7288ZM12.85 2.48355C13.3834 2.34061 13.9318 2.65719 14.0747 3.19066L14.5595 4.99999L8.00006 4.99998C6.3432 4.99998 5.00006 6.34313 5.00006 7.99998L5.00006 12.73C4.55057 12.7416 4.13147 12.4464 4.00888 11.9888L2.48361 6.29648C2.34067 5.76302 2.65725 5.21468 3.19072 5.07174L12.85 2.48355ZM7.00006 13.5234C7.00042 13.508 7.00042 13.4925 7.00006 13.477L7.00006 7.99998C7.00006 7.4477 7.44777 6.99998 8.00006 6.99998L18.0001 6.99999C18.5523 6.99999 19.0001 7.4477 19.0001 7.99999V14C19.0001 14.5523 18.5523 15 18.0001 15L8.00006 15C7.44777 15 7.00006 14.5523 7.00006 14V13.5234Z" fill="#242428"/>
</svg>
