<svg width="48" height="48" viewBox="0 0 48 48" fill="none" xmlns="http://www.w3.org/2000/svg">
<path d="M21.5145 29.0913C20.848 29.4912 20 29.0111 20 28.2338V19.7662C20 18.9889 20.848 18.5088 21.5145 18.9087L28.5708 23.1425C29.2182 23.5309 29.2182 24.4691 28.5708 24.8575L21.5145 29.0913Z" />
<path fill-rule="evenodd" clip-rule="evenodd" d="M11 5.5C10.1716 5.5 9.5 6.17157 9.5 7V9.5H4C3.17157 9.5 2.5 10.1716 2.5 11V37C2.5 37.8284 3.17157 38.5 4 38.5H9.5V41C9.5 41.8284 10.1716 42.5 11 42.5H37C37.8284 42.5 38.5 41.8284 38.5 41V38.5H44C44.8284 38.5 45.5 37.8284 45.5 37V11C45.5 10.1716 44.8284 9.5 44 9.5H38.5V7C38.5 6.17157 37.8284 5.5 37 5.5H11ZM35.5 39.5H12.5V8.5H35.5V39.5ZM42.5 35.5H38.5V12.5H42.5V35.5ZM9.5 35.5V12.5H5.5V35.5H9.5Z" />
</g>
</svg>
