<svg width="20" height="16" viewBox="0 0 20 16" fill="none" xmlns="http://www.w3.org/2000/svg">
<path fill-rule="evenodd" clip-rule="evenodd" d="M0.488155 6.82149C1.13903 6.17061 2.1943 6.17061 2.84518 6.82149L8.40073 12.377C9.05161 13.0279 9.05161 14.0832 8.40073 14.7341C7.74986 15.3849 6.69459 15.3849 6.04371 14.7341L0.488155 9.17851C-0.162719 8.52764 -0.162719 7.47236 0.488155 6.82149Z" fill="white"/>
<path fill-rule="evenodd" clip-rule="evenodd" d="M19.5118 1.26593C18.861 0.615053 17.8057 0.615053 17.1548 1.26593L6.04371 12.377C5.39284 13.0279 5.39284 14.0832 6.04371 14.7341C6.69458 15.3849 7.74986 15.3849 8.40073 14.7341L19.5118 3.62295C20.1627 2.97207 20.1627 1.9168 19.5118 1.26593Z" fill="white"/>
</svg>
