<svg width="48" height="48" viewBox="0 0 48 48" fill="none" xmlns="http://www.w3.org/2000/svg">
<path fill-rule="evenodd" clip-rule="evenodd" d="M2.5 24C2.5 12.1259 12.1259 2.5 24 2.5C35.8741 2.5 45.5 12.1259 45.5 24C45.5 35.8741 35.8741 45.5 24 45.5C12.1259 45.5 2.5 35.8741 2.5 24ZM38.201 35.8574C40.5844 33.006 42.1251 29.4259 42.4401 25.5H33.4785C33.4088 27.9187 33.1717 30.2344 32.7915 32.3743C34.7719 33.2628 36.5933 34.4421 38.201 35.8574ZM36.0938 38.0001C34.8975 36.9656 33.5678 36.0822 32.1337 35.379C31.8195 36.5702 31.4563 37.6825 31.0496 38.6992C30.6193 39.7748 30.1311 40.767 29.5853 41.6419C32.0087 40.8754 34.2162 39.6234 36.0938 38.0001ZM29.9268 31.3277C28.0439 30.7887 26.0554 30.5 23.9998 30.5C21.9443 30.5 19.9559 30.7887 18.0732 31.3276C17.777 29.5181 17.5858 27.5592 17.5228 25.5H30.4772C30.4142 27.5593 30.223 29.5182 29.9268 31.3277ZM18.68 34.276C20.3646 33.7711 22.1503 33.5 23.9998 33.5C25.8493 33.5 27.6352 33.7712 29.32 34.2761C29.0157 35.4844 28.6605 36.5941 28.2641 37.5851C27.5821 39.2901 26.8075 40.5693 26.0241 41.3976C25.2437 42.2228 24.5592 42.5 24 42.5C23.4408 42.5 22.7563 42.2228 21.9759 41.3976C21.1925 40.5693 20.4179 39.2901 19.7359 37.5851C19.3395 36.5941 18.9843 35.4843 18.68 34.276ZM15.2085 32.3741C14.8283 30.2343 14.5912 27.9186 14.5215 25.5H5.55993C5.87493 29.4258 7.41551 33.0058 9.7988 35.8572C11.4065 34.4419 13.228 33.2626 15.2085 32.3741ZM11.906 37.9999C13.1023 36.9655 14.4322 36.082 15.8662 35.3788C16.1805 36.5701 16.5437 37.6825 16.9504 38.6992C17.3807 39.7748 17.8689 40.767 18.4147 41.6419C15.9913 40.8754 13.7836 39.6233 11.906 37.9999ZM33.4785 22.5H42.4401C42.1251 18.5741 40.5844 14.994 38.201 12.1426C36.5933 13.5579 34.7719 14.7372 32.7915 15.6257C33.1717 17.7656 33.4088 20.0813 33.4785 22.5ZM36.0938 9.99993C34.8975 11.0344 33.5678 11.9178 32.1337 12.621C31.8195 11.4298 31.4563 10.3175 31.0496 9.30078C30.6193 8.22516 30.1311 7.23305 29.5853 6.35806C32.0087 7.12457 34.2162 8.37657 36.0938 9.99993ZM23.9998 14.5C25.8493 14.5 27.6352 14.2288 29.32 13.7239C29.0157 12.5156 28.6605 11.4059 28.2641 10.4149C27.5821 8.70989 26.8075 7.43073 26.0241 6.60236C25.2437 5.77716 24.5592 5.5 24 5.5C23.4408 5.5 22.7563 5.77716 21.9759 6.60236C21.1925 7.43073 20.4179 8.70989 19.7359 10.4149C19.3395 11.4059 18.9843 12.5157 18.68 13.724C20.3646 14.2289 22.1504 14.5 23.9998 14.5ZM23.9998 17.5C21.9443 17.5 19.9559 17.2113 18.0732 16.6724C17.777 18.4819 17.5858 20.4408 17.5228 22.5H30.4772C30.4142 20.4407 30.223 18.4818 29.9268 16.6723C28.0439 17.2113 26.0554 17.5 23.9998 17.5ZM16.9504 9.30078C16.5437 10.3175 16.1805 11.4299 15.8662 12.6211C14.4322 11.918 13.1023 11.0345 11.906 10.0001C13.7837 8.37666 15.9913 7.12459 18.4147 6.35806C17.8689 7.23305 17.3807 8.22516 16.9504 9.30078ZM15.2085 15.6259C13.228 14.7374 11.4066 13.5581 9.79881 12.1428C7.41552 14.9942 5.87493 18.5742 5.55993 22.5H14.5215C14.5912 20.0814 14.8283 17.7657 15.2085 15.6259Z"/>
</g>
</svg>
