<svg width="42" height="16" viewBox="0 0 42 16" fill="none" xmlns="http://www.w3.org/2000/svg">
<g clip-path="url(#clip0)">
<path d="M19.8917 7.81671V12.5068H18.3776V0.924316H22.3932C22.8725 0.914477 23.3491 0.998018 23.7954 1.17012C24.2417 1.34222 24.6489 1.59947 24.9935 1.92703C25.3416 2.2347 25.6186 2.61203 25.806 3.03365C25.9933 3.45527 26.0866 3.91142 26.0797 4.37144C26.0897 4.83391 25.9978 5.29304 25.8103 5.71735C25.6228 6.14166 25.3442 6.52111 24.9935 6.82971C24.2913 7.48771 23.4245 7.8164 22.3932 7.81578H19.8917V7.81671ZM19.8917 2.3503V6.3935H22.4308C22.7092 6.40161 22.9862 6.35253 23.2442 6.24942C23.5021 6.1463 23.7354 5.9914 23.9289 5.79464C24.1215 5.61068 24.2745 5.39064 24.3791 5.14753C24.4836 4.90443 24.5374 4.6432 24.5374 4.37929C24.5374 4.11538 24.4836 3.85415 24.3791 3.61105C24.2745 3.36795 24.1215 3.14791 23.9289 2.96394C23.7378 2.76303 23.5054 2.60435 23.2471 2.49839C22.9888 2.39244 22.7106 2.34165 22.4308 2.34937H19.8917V2.3503Z" fill="#5F6368"/>
<path d="M29.5687 4.32309C30.6878 4.32309 31.5712 4.61697 32.2189 5.20474C32.8665 5.79251 33.19 6.59837 33.1894 7.62234V12.5065H31.7411V11.4068H31.6753C31.0483 12.3125 30.2145 12.7653 29.1737 12.7653C28.2853 12.7653 27.5421 12.5065 26.944 11.989C26.6569 11.7515 26.4274 11.454 26.2722 11.1183C26.117 10.7825 26.04 10.417 26.0468 10.0483C26.0468 9.22823 26.3622 8.57608 26.9929 8.09182C27.6236 7.60756 28.4656 7.36481 29.5189 7.36358C30.4179 7.36358 31.1584 7.52531 31.7402 7.84876V7.50867C31.7419 7.25732 31.6867 7.00873 31.5785 6.78096C31.4703 6.55318 31.3119 6.35191 31.1148 6.19174C30.7144 5.83675 30.1926 5.64306 29.6534 5.64926C28.8076 5.64926 28.1383 5.99983 27.6455 6.70096L26.312 5.87568C27.0455 4.84062 28.1311 4.32309 29.5687 4.32309ZM27.6098 10.0806C27.6088 10.27 27.6538 10.4568 27.7412 10.6256C27.8285 10.7944 27.9557 10.9402 28.112 11.051C28.4469 11.3098 28.8625 11.447 29.2885 11.4391C29.9274 11.4381 30.5398 11.1882 30.9916 10.7442C31.4932 10.2802 31.7439 9.7359 31.7439 9.11117C31.2718 8.7415 30.6135 8.55667 29.769 8.55667C29.154 8.55667 28.6411 8.70238 28.2305 8.9938C27.8158 9.28953 27.6098 9.64903 27.6098 10.0806Z" fill="#5F6368"/>
<path d="M41.5027 4.58186L36.4469 15.9999H34.8839L36.7601 12.0047L33.4357 4.58186H35.0814L37.4842 10.2747H37.5171L39.8541 4.58186H41.5027Z" fill="#5F6368"/>
<path d="M13.7733 6.80559C13.7738 6.35216 13.7348 5.89951 13.6566 5.45262H7.27112V8.01532H10.9285C10.8536 8.42462 10.6952 8.81479 10.4628 9.16231C10.2304 9.50983 9.92875 9.8075 9.57611 10.0374V11.7009H11.7589C13.0369 10.5429 13.7733 8.83043 13.7733 6.80559Z" fill="#4285F4"/>
<path d="M7.27111 13.3078C9.09837 13.3078 10.6369 12.7181 11.7589 11.7016L9.57611 10.0381C8.96859 10.4429 8.18615 10.6739 7.27111 10.6739C5.50498 10.6739 4.00593 9.50391 3.46989 7.92729H1.22131V9.64161C1.78488 10.7437 2.64906 11.6701 3.71735 12.3175C4.78565 12.9648 6.01602 13.3077 7.27111 13.3078Z" fill="#34A853"/>
<path d="M3.4697 7.92757C3.18631 7.10141 3.18631 6.20674 3.4697 5.38058V3.66626H1.22112C0.74703 4.59334 0.500122 5.61652 0.500122 6.65407C0.500122 7.69163 0.74703 8.71481 1.22112 9.64188L3.4697 7.92757Z" fill="#FBBC04"/>
<path d="M7.27111 2.63398C8.23673 2.61848 9.16978 2.97701 9.86858 3.63208L11.8012 1.73293C10.5757 0.601823 8.95224 -0.0191719 7.27111 0.000123757C6.01602 0.000179969 4.78565 0.343038 3.71735 0.99042C2.64906 1.6378 1.78488 2.56423 1.22131 3.66627L3.46989 5.38059C4.00593 3.80397 5.50498 2.63398 7.27111 2.63398Z" fill="#EA4335"/>
</g>
<defs>
<clipPath id="clip0">
<rect width="41" height="16" fill="white" transform="translate(0.5)"/>
</clipPath>
</defs>
</svg>
