<svg viewBox="0 0 18 10" fill="none" xmlns="http://www.w3.org/2000/svg">
<path fill-rule="evenodd" clip-rule="evenodd" d="M10.6364 1.80683C13.3539 -0.910656 18.0003 1.01399 18.0003 4.85709C18.0003 8.70019 13.3539 10.6248 10.6364 7.90734L9.00034 6.2713L7.3643 7.90734C4.64681 10.6248 0.000335336 8.70019 0.000335504 4.85709C0.000335672 1.01399 4.6468 -0.910656 7.36429 1.80683L9.00034 3.44287L10.6364 1.80683ZM10.4145 4.85709L12.0506 6.49313C13.5081 7.95068 16.0003 6.91838 16.0003 4.85709C16.0003 2.79579 13.5081 1.76349 12.0506 3.22105L10.4145 4.85709ZM7.58612 4.85709L5.95008 3.22105C4.49253 1.76349 2.00034 2.79579 2.00034 4.85709C2.00034 6.91838 4.49253 7.95068 5.95008 6.49313L7.58612 4.85709Z" />
</svg>
