<svg width="48" height="48" viewBox="0 0 48 48" fill="none" xmlns="http://www.w3.org/2000/svg">
<path fill-rule="evenodd" clip-rule="evenodd" d="M24 10.5C20.4102 10.5 17.5 13.4102 17.5 17C17.5 20.5898 20.4102 23.5 24 23.5C27.5898 23.5 30.5 20.5898 30.5 17C30.5 13.4102 27.5898 10.5 24 10.5ZM20.5 17C20.5 15.067 22.067 13.5 24 13.5C25.933 13.5 27.5 15.067 27.5 17C27.5 18.933 25.933 20.5 24 20.5C22.067 20.5 20.5 18.933 20.5 17Z" />
<path fill-rule="evenodd" clip-rule="evenodd" d="M9.5 16.6818C9.5 8.81459 16.0271 2.5 24 2.5C31.9729 2.5 38.5 8.81459 38.5 16.6818C38.5 22.2105 34.8816 27.1602 31.5769 30.5684C29.891 32.3071 28.2105 33.7222 26.9534 34.7021C26.3236 35.193 25.797 35.577 25.4249 35.8403C25.2388 35.9719 25.0912 36.0735 24.9884 36.1433C24.937 36.1782 24.8967 36.2052 24.8685 36.2239L24.8353 36.246L24.8256 36.2524L24.8225 36.2544L24.8214 36.2551C24.821 36.2554 24.8206 36.2556 24 35C23.1794 36.2556 23.179 36.2554 23.1786 36.2551L23.1775 36.2544L23.1744 36.2524L23.1647 36.246L23.1315 36.2239C23.1032 36.2052 23.063 36.1782 23.0116 36.1433C22.9088 36.0735 22.7612 35.9719 22.5751 35.8403C22.203 35.577 21.6764 35.193 21.0466 34.7021C19.7895 33.7222 18.109 32.3071 16.4231 30.5684C13.1184 27.1602 9.5 22.2105 9.5 16.6818ZM24 33.1708C24.3036 32.9507 24.6798 32.6706 25.1091 32.336C26.2895 31.4159 27.859 30.0931 29.4231 28.48C32.6184 25.1847 35.5 20.9753 35.5 16.6818C35.5 10.5411 30.3865 5.5 24 5.5C17.6135 5.5 12.5 10.5411 12.5 16.6818C12.5 20.9753 15.3816 25.1847 18.5769 28.48C20.141 30.0931 21.7105 31.4159 22.8909 32.336C23.3202 32.6706 23.6964 32.9507 24 33.1708Z" />
<path d="M24 35L24.8214 36.2551C24.3228 36.5809 23.6772 36.5809 23.1786 36.2551L24 35Z" />
<path d="M11.2946 32.3264C11.5326 33.1199 11.0824 33.9562 10.2889 34.1942C8.55724 34.7137 7.26517 35.3025 6.43949 35.8881C5.57484 36.5014 5.5 36.8989 5.5 37.0001C5.5 37.1013 5.57485 37.4988 6.4395 38.1121C7.26517 38.6977 8.55724 39.2865 10.2889 39.806C13.7331 40.8392 18.5811 41.5001 24 41.5001C29.4189 41.5001 34.2669 40.8392 37.7111 39.806C39.4428 39.2865 40.7348 38.6977 41.5605 38.1121C42.4251 37.4988 42.5 37.1013 42.5 37.0001C42.5 36.8989 42.4252 36.5014 41.5605 35.8881C40.7348 35.3025 39.4427 34.7137 37.7111 34.1942C36.9176 33.9562 36.4673 33.1199 36.7054 32.3265C36.9434 31.533 37.7796 31.0827 38.5731 31.3207C40.4608 31.887 42.0976 32.5911 43.2961 33.4412C44.4555 34.2635 45.5 35.4444 45.5 37.0001C45.5 38.5557 44.4556 39.7366 43.2961 40.559C42.0977 41.4091 40.4608 42.1132 38.5732 42.6795C34.7788 43.8178 29.6268 44.5001 24 44.5001C18.3732 44.5001 13.2212 43.8178 9.42684 42.6795C7.5392 42.1132 5.90234 41.4091 4.7039 40.559C3.54443 39.7366 2.5 38.5557 2.5 37.0001C2.5 35.4444 3.54445 34.2635 4.70391 33.4412C5.90234 32.5911 7.5392 31.887 9.42683 31.3207C10.2203 31.0827 11.0565 31.533 11.2946 32.3264Z" />
</svg>
