<svg viewBox="0 0 110 110" fill="none" xmlns="http://www.w3.org/2000/svg">
<path fill-rule="evenodd" clip-rule="evenodd" d="M37.1731 30.3896L32.5166 27.3381V33.4407L37.1731 30.3896Z" fill="#FB4C4C"/>
<path d="M19.5992 29.3821C20.223 29.6256 20.784 29.9397 21.2664 30.3159C21.7734 30.7122 22.1826 31.2124 22.4822 31.803C22.7847 32.4003 22.9381 33.1418 22.9381 34.0069C22.9381 34.8931 22.7563 35.6802 22.3975 36.3469C22.0442 37.0035 21.5699 37.5549 20.9872 37.9858C20.4168 38.4074 19.7545 38.7247 19.0182 38.9293C18.3002 39.1291 17.5493 39.2301 16.7861 39.2301C16.2934 39.2301 15.7932 39.1854 15.3001 39.098C14.8022 39.0096 14.3159 38.8704 13.8549 38.6848C13.3842 38.4948 12.938 38.2445 12.5284 37.9405C12.1033 37.6261 11.7325 37.2337 11.4265 36.7746L11.1152 36.3077L13.7083 34.1814L14.0749 34.8041C14.3554 35.28 14.7346 35.63 15.2348 35.8738C16.0559 36.275 16.9861 36.3792 17.9353 36.1027C18.275 36.0036 18.583 35.8576 18.8512 35.6685C19.1094 35.4863 19.3148 35.2667 19.4792 34.9964C19.628 34.7519 19.7002 34.4719 19.7002 34.14C19.7002 33.7566 19.6426 33.4549 19.529 33.2431C19.4164 33.0333 19.2317 32.8433 18.981 32.6794C18.6849 32.4868 18.2973 32.3071 17.8292 32.1465C17.3112 31.9688 16.7039 31.7615 16.0083 31.5242C15.4328 31.3426 14.8812 31.1256 14.3823 30.8835C13.8523 30.627 13.3838 30.3055 12.9908 29.9283C12.5841 29.5388 12.2602 29.0664 12.0279 28.5244C11.7956 27.9824 11.6779 27.3355 11.6779 26.6012C11.6779 25.7474 11.8516 24.9843 12.1932 24.3335C12.532 23.6905 12.9953 23.1459 13.5699 22.7143C14.1286 22.2947 14.7692 21.9738 15.4732 21.7607C16.1669 21.5513 16.8997 21.4451 17.6522 21.4451C18.6108 21.4451 19.5025 21.5966 20.3023 21.8961C21.1321 22.2066 21.8798 22.7496 22.5243 23.5098L22.92 23.9763L20.3751 26.1907L19.992 25.5703C19.7461 25.1717 19.4294 24.8904 19.0237 24.7103C18.254 24.3697 17.3908 24.3458 16.5852 24.5546C16.252 24.6414 15.9508 24.7712 15.69 24.9412C15.4532 25.0953 15.2684 25.2944 15.1248 25.5493C14.9844 25.7982 14.9161 26.0916 14.9161 26.4458C14.9161 26.7203 14.9569 26.9599 15.0371 27.1574C15.1125 27.3443 15.2367 27.5117 15.4176 27.671C15.622 27.8519 15.9132 28.0274 16.283 28.1929C16.6878 28.3748 17.1951 28.5604 17.791 28.7449C18.4138 28.9427 19.0211 29.1568 19.5992 29.3821Z" />
<path d="M76.8415 61.8216C77.5115 61.4865 78.1068 60.9934 78.6106 60.3566L79.0063 59.857L81.3419 61.8233L80.9911 62.2921C80.2195 63.322 79.2738 64.091 78.1809 64.577C77.1065 65.0549 75.8816 65.2974 74.5405 65.2974C73.3367 65.2974 72.1936 65.0714 71.1434 64.6252C70.0946 64.1803 69.1712 63.5545 68.3983 62.7651C67.626 61.9767 67.0139 61.0297 66.5778 59.9509C66.1426 58.874 65.9216 57.6809 65.9216 56.4049C65.9216 55.1768 66.1335 54.0086 66.5525 52.9333C66.9728 51.8542 67.5739 50.9026 68.3384 50.1052C69.1023 49.309 70.0208 48.6715 71.069 48.2101C72.1215 47.7471 73.2894 47.5127 74.5402 47.5127C75.6787 47.5127 76.7904 47.7215 77.8435 48.1334C78.9318 48.5598 79.8552 49.2634 80.588 50.225L80.9724 50.7294L78.3424 52.64L77.9771 52.1492C77.5627 51.5916 77.0664 51.1856 76.4607 50.9085C75.8489 50.6284 75.2031 50.4863 74.5405 50.4863C73.765 50.4863 73.0445 50.6449 72.4001 50.9577C71.7439 51.2759 71.1693 51.7095 70.6921 52.2463C70.213 52.786 69.8335 53.4239 69.5649 54.1423C69.2961 54.8611 69.1599 55.6223 69.1599 56.4049C69.1599 57.2467 69.2964 58.038 69.5649 58.7565C69.8328 59.4736 70.2078 60.103 70.6789 60.6276C71.1457 61.1475 71.7142 61.5652 72.3683 61.8696C73.0157 62.1707 73.7469 62.3235 74.5405 62.3235C75.4021 62.3235 76.1763 62.1545 76.8415 61.8216Z" />
<path fill-rule="evenodd" clip-rule="evenodd" d="M25.7187 51.4406C25.2855 50.8067 24.7756 50.2553 24.202 49.8023C23.64 49.3587 23.0437 48.9922 22.4306 48.7128C21.8207 48.436 21.1973 48.2307 20.5764 48.1028C19.9601 47.9765 19.3651 47.9121 18.808 47.9121H12.1445V64.8961H18.808C19.3661 64.8961 19.9614 64.832 20.5764 64.7054C21.197 64.5782 21.8207 64.3729 22.4309 64.0957C23.0434 63.817 23.6393 63.4504 24.202 63.0062C24.7749 62.5539 25.2855 62.0032 25.7183 61.3686C26.1519 60.7349 26.5003 59.998 26.7543 59.1785C27.0089 58.3578 27.1377 57.424 27.1377 56.4041C27.1377 55.3849 27.0086 54.4514 26.7543 53.6293C26.5003 52.8112 26.1519 52.0746 25.7187 51.4406ZM23.9001 56.4044C23.9001 57.3981 23.7519 58.2522 23.4601 58.9428C23.1721 59.6244 22.7774 60.189 22.2873 60.621C21.7932 61.0571 21.197 61.3848 20.515 61.5942C19.8068 61.8121 19.0232 61.9225 18.1859 61.9225H15.2495V50.886H18.1859C19.0232 50.886 19.8068 50.9964 20.5146 51.2143C21.1967 51.4244 21.7932 51.7521 22.2873 52.1876C22.7774 52.6201 23.1721 53.1848 23.4601 53.8657C23.7519 54.557 23.9001 55.4108 23.9001 56.4044Z" />
<path d="M32.3053 86.4783L36.8942 74.599H40.203L33.5632 91.5826H30.9154L24.4191 74.599H27.8593L32.3053 86.4783Z" />
<path d="M15.9226 77.5722H10.7224V74.599H24.2267V77.5722H19.0268V91.5826H15.9226V77.5722Z" />
<path fill-rule="evenodd" clip-rule="evenodd" d="M28.4141 64.8963L35.8928 47.9124H38.4614L45.6762 64.8963H42.149L40.5491 61.0266H33.5081L31.8859 64.8963H28.4141ZM34.7631 58.053H39.3359L37.1051 52.5045L34.7631 58.053Z" />
<path d="M59.3882 59.7007L51.1746 47.9124H47.8772V64.8963H50.9818V53.108L59.195 64.8963H62.4928V47.9124H59.3882V59.7007Z" />
<path d="M87.2478 61.9228V57.5573H94.7367V54.5841H87.2478V50.8859H95.2702V47.9124H84.1436V64.8963H95.6704V61.9228H87.2478Z" />
<path fill-rule="evenodd" clip-rule="evenodd" d="M40.7233 23.9728C39.9355 23.1847 38.9934 22.5595 37.9225 22.115C36.8509 21.6704 35.6607 21.4451 34.3856 21.4451C33.1106 21.4451 31.9203 21.6704 30.8484 22.1153C29.7775 22.5598 28.8357 23.1847 28.0479 23.9728C27.2588 24.7625 26.6373 25.715 26.2002 26.8039C25.7651 27.8879 25.5444 29.0768 25.5444 30.3376C25.5444 31.5984 25.7651 32.7873 26.1999 33.8706C26.637 34.9595 27.2585 35.9123 28.0479 36.702C28.8351 37.4904 29.7775 38.1153 30.8488 38.5595C31.92 39.0041 33.1099 39.2294 34.3856 39.2294C35.6613 39.2294 36.8513 39.0041 37.9228 38.5592C38.9934 38.115 39.9352 37.4901 40.7233 36.7017C41.5127 35.9117 42.1339 34.9591 42.571 33.8703C43.0061 32.7853 43.2268 31.5967 43.2268 30.3372C43.2268 29.0778 43.0061 27.8892 42.5707 26.8039C42.1339 25.715 41.5124 24.7625 40.7233 23.9728ZM39.9889 30.3376C39.9889 31.1616 39.8491 31.9435 39.5741 32.6623C39.2998 33.3785 38.9115 34.0108 38.4204 34.5424C37.9319 35.0705 37.3382 35.4931 36.6558 35.7984C35.9764 36.1021 35.2129 36.2559 34.3859 36.2559C33.5587 36.2559 32.7954 36.1021 32.116 35.7984C31.4334 35.4934 30.8397 35.0705 30.3512 34.5421C29.8594 34.0108 29.4715 33.3782 29.1974 32.662C28.9224 31.9438 28.783 31.1619 28.783 30.3376C28.783 29.5132 28.9224 28.731 29.1974 28.0125C29.4715 27.2967 29.86 26.6643 30.3518 26.1324C30.84 25.6043 31.4334 25.1814 32.116 24.8764C32.7958 24.5727 33.5593 24.4189 34.3859 24.4189C35.2122 24.4189 35.9758 24.5727 36.6555 24.8764C37.3382 25.1818 37.9322 25.6046 38.4201 26.1327C38.9118 26.6647 39.2998 27.2973 39.5741 28.0129C39.8491 28.7313 39.9889 29.5136 39.9889 30.3376Z" />
<path d="M56.6639 35.7543C57.334 35.4192 57.9293 34.9261 58.433 34.2893L58.8287 33.7887L61.1643 35.7553L60.8132 36.2238C60.0416 37.2537 59.0962 38.0224 58.0034 38.5087C56.9283 38.9869 55.7037 39.2294 54.363 39.2294C53.1594 39.2294 52.0164 39.0034 50.9659 38.5576C49.917 38.1124 48.9936 37.4865 48.221 36.6975C47.4484 35.9088 46.836 34.9617 46.4005 33.8829C45.9654 32.807 45.7444 31.6139 45.7444 30.3376C45.7444 29.1092 45.9563 27.941 46.3753 26.8657C46.7959 25.7863 47.3967 24.8347 48.1609 24.0375C48.9247 23.2414 49.8439 22.6039 50.8921 22.1425C51.9439 21.6795 53.1119 21.4451 54.363 21.4451C55.5015 21.4451 56.6128 21.6539 57.6659 22.0654C58.7543 22.4918 59.6776 23.1954 60.4104 24.157L60.7948 24.6615L58.1648 26.5721L57.7995 26.0812C57.3851 25.5237 56.8888 25.1177 56.2831 24.8402C55.6713 24.5604 55.0252 24.4183 54.363 24.4183C53.5875 24.4183 52.867 24.577 52.2218 24.89C51.5663 25.2083 50.9918 25.6418 50.5145 26.1787C50.0348 26.7191 49.6556 27.3569 49.3874 28.0744C49.1185 28.7935 48.9823 29.5547 48.9823 30.3372C48.9823 31.1784 49.1188 31.9697 49.3874 32.6885C49.6549 33.4053 50.0299 34.0351 50.5013 34.5596C50.9681 35.0799 51.5363 35.4976 52.1908 35.8019C52.8375 36.1034 53.5684 36.2559 54.363 36.2559C55.2249 36.2559 55.9987 36.0872 56.6639 35.7543Z" />
<path d="M67.0704 21.8452H63.9658V38.8292H67.0704V21.8452Z" />
<path fill-rule="evenodd" clip-rule="evenodd" d="M69.2578 38.8292L76.7366 21.8452H79.3051L86.5199 38.8292H82.9927L81.3929 34.9594H74.3518L72.7296 38.8292H69.2578ZM75.6071 31.9862H80.1796L77.9492 26.4377L75.6071 31.9862Z" />
<path d="M91.8256 35.8556V21.8452H88.7207V38.8292H99.0252V35.8556H91.8256Z" />
<path fill-rule="evenodd" clip-rule="evenodd" d="M0 110V0H110V110H0ZM2.64908 2.64908H107.351V107.351H2.64908V2.64908Z" />
</svg>
