<svg viewBox="0 0 152 25" fill="none" xmlns="http://www.w3.org/2000/svg">
<path d="M7 6V19L16 12.5L7 6Z" fill="#FB4C4C"/>
<path d="M26.9702 17.2956C26.7014 17.2956 26.4325 17.2699 26.1765 17.2185C25.9076 17.167 25.6516 17.1028 25.4083 16.9999C25.1522 16.897 24.9218 16.7685 24.7041 16.6013C24.4737 16.4342 24.2817 16.2285 24.128 15.9842L24 15.7913L25.2803 14.737L25.4339 14.9942C25.6003 15.2642 25.818 15.4699 26.0996 15.6113C26.5605 15.8427 27.0983 15.8942 27.636 15.7399C27.828 15.6885 28.0072 15.5985 28.1609 15.4956C28.3145 15.3927 28.4297 15.2642 28.5322 15.097C28.6218 14.9556 28.6602 14.7884 28.6602 14.5827C28.6602 14.3642 28.6218 14.1842 28.5578 14.0556C28.4938 13.927 28.3785 13.8113 28.2249 13.7213C28.0585 13.6056 27.8408 13.5156 27.5848 13.4256C27.4586 13.3795 27.3221 13.3334 27.1754 13.2839C26.9947 13.2228 26.798 13.1565 26.5861 13.0784C26.2789 12.9756 25.9716 12.8599 25.7028 12.7313C25.4211 12.5899 25.1779 12.4227 24.9602 12.217C24.7426 12.0113 24.5761 11.767 24.4481 11.4713C24.3201 11.1884 24.2689 10.8413 24.2689 10.4556C24.2689 10.0055 24.3585 9.59412 24.5377 9.24697C24.7169 8.89983 24.9602 8.61697 25.2675 8.38554C25.5619 8.16696 25.9076 7.98696 26.2789 7.87125C26.6502 7.75553 27.047 7.7041 27.4439 7.7041C27.956 7.7041 28.4297 7.78124 28.865 7.94839C29.3003 8.11553 29.6972 8.39839 30.0429 8.80982L30.2093 9.00268L28.9546 10.0955L28.801 9.8384C28.6602 9.60697 28.4681 9.43983 28.2377 9.33697C27.8024 9.14411 27.3159 9.13126 26.855 9.24697C26.663 9.2984 26.4965 9.37554 26.3429 9.46554C26.2021 9.55554 26.0868 9.67126 26.01 9.82555C25.9332 9.96698 25.882 10.147 25.882 10.3527C25.882 10.5198 25.9076 10.6613 25.9588 10.777C26.01 10.8927 26.074 10.9956 26.1893 11.0856C26.3045 11.1884 26.4709 11.2913 26.6886 11.3813C26.9062 11.4841 27.1879 11.587 27.5207 11.6898C27.8536 11.7927 28.1865 11.9084 28.5066 12.037C28.8394 12.1656 29.1339 12.3327 29.3899 12.5384C29.6588 12.7441 29.8764 13.0141 30.0301 13.3227C30.1837 13.6441 30.2733 14.0299 30.2733 14.4927C30.2733 14.9684 30.1709 15.3799 29.9917 15.7399C29.7996 16.087 29.5564 16.3827 29.2491 16.6142C28.9418 16.8327 28.5962 17.0127 28.1993 17.1156C27.7896 17.2442 27.3799 17.2956 26.9702 17.2956Z" />
<path fill-rule="evenodd" clip-rule="evenodd" d="M36.5723 17.2958C35.881 17.2958 35.2537 17.1801 34.6775 16.9358C34.1014 16.6915 33.6021 16.3572 33.1796 15.9329C32.7571 15.5086 32.4243 14.9943 32.1938 14.4158C31.9634 13.8372 31.8481 13.1943 31.8481 12.5129C31.8481 11.8314 31.9634 11.1886 32.1938 10.61C32.4243 10.0186 32.7571 9.51714 33.1796 9.09285C33.6021 8.66856 34.1014 8.33427 34.6775 8.08998C35.2537 7.8457 35.8938 7.72998 36.5723 7.72998C37.2637 7.72998 37.891 7.8457 38.4671 8.08998C39.0433 8.33427 39.5426 8.66856 39.9651 9.09285C40.3876 9.51714 40.7204 10.0314 40.9509 10.61C41.1813 11.1886 41.3093 11.8314 41.3093 12.5129C41.3093 13.1943 41.1941 13.8372 40.9637 14.4158C40.7332 15.0072 40.4004 15.5086 39.9779 15.9329C39.5554 16.3572 39.0561 16.6915 38.4799 16.9358C37.9038 17.1672 37.2637 17.2958 36.5723 17.2958ZM36.5723 9.18285C36.1114 9.18285 35.6762 9.27285 35.3049 9.44C34.9208 9.60714 34.5879 9.85143 34.3191 10.1471C34.0374 10.4429 33.8198 10.8029 33.6789 11.2014C33.5253 11.6 33.4485 12.0372 33.4485 12.5C33.4485 12.9629 33.5253 13.4 33.6789 13.7986C33.8326 14.1972 34.0502 14.5572 34.3191 14.8529C34.5879 15.1486 34.9208 15.3929 35.3049 15.56C35.689 15.7272 36.1114 15.8172 36.5723 15.8172C37.0332 15.8172 37.4685 15.7272 37.8398 15.56C38.2239 15.3929 38.5568 15.1486 38.8256 14.8529C39.1073 14.5572 39.3121 14.1972 39.4658 13.7986C39.6194 13.4 39.6962 12.9629 39.6962 12.5C39.6962 12.0372 39.6194 11.6 39.4658 11.2014C39.3121 10.8029 39.0945 10.4429 38.8256 10.1471C38.5568 9.85143 38.2239 9.60714 37.8398 9.44C37.4685 9.27285 37.0332 9.18285 36.5723 9.18285Z" />
<path d="M47.4802 17.2959C46.84 17.2959 46.2255 17.1802 45.6622 16.9359C45.0989 16.6916 44.5996 16.3574 44.1899 15.9331C43.7802 15.5088 43.4473 14.9945 43.2169 14.4159C42.9864 13.8373 42.8584 13.1945 42.8584 12.5002C42.8584 11.8316 42.9736 11.2016 43.1913 10.623C43.4217 10.0444 43.7418 9.53016 44.1515 9.10587C44.5612 8.68158 45.0477 8.33443 45.611 8.09015C46.1743 7.84586 46.8016 7.71729 47.4674 7.71729C48.0819 7.71729 48.6708 7.833 49.2341 8.05157C49.8103 8.283 50.3096 8.65586 50.6937 9.17015L50.8473 9.37587L49.5414 10.3273L49.3878 10.1216C49.1573 9.81302 48.8629 9.56873 48.53 9.41444C48.1843 9.26016 47.8259 9.17015 47.4418 9.17015C47.0065 9.17015 46.5968 9.26016 46.2383 9.44016C45.867 9.62016 45.547 9.86445 45.2781 10.1602C45.0093 10.4687 44.7916 10.8159 44.6508 11.2273C44.4971 11.6259 44.4203 12.063 44.4203 12.5002C44.4203 12.9759 44.4971 13.413 44.6508 13.8116C44.8044 14.2102 45.0093 14.5702 45.2781 14.8659C45.5342 15.1616 45.8542 15.3931 46.2255 15.5602C46.584 15.7274 46.9937 15.8174 47.4418 15.8174C47.9283 15.8174 48.3636 15.7274 48.7348 15.5345C49.1061 15.3416 49.4518 15.0716 49.7335 14.7116L49.8999 14.5059L51.0521 15.4831L50.9113 15.6759C50.5016 16.2288 49.9895 16.6402 49.4134 16.8974C48.8629 17.1674 48.1971 17.2959 47.4802 17.2959Z" />
<path d="M54.3298 17.0761H52.7935V7.93457H54.3298V17.0761Z" />
<path fill-rule="evenodd" clip-rule="evenodd" d="M64.9048 17.0761H63.1636L62.293 14.9546H58.337L57.4536 17.0761H55.738L59.7453 7.93457H61.0384L64.9048 17.0761ZM58.9515 13.4889H61.6913L60.3598 10.1589L58.9515 13.4889Z" />
<path d="M66.313 17.0761V7.93457H67.8493V15.6103H71.7797V17.0761H66.313Z" />
<path fill-rule="evenodd" clip-rule="evenodd" d="M80.5592 17.0517H77V7.91016H80.5592C80.8536 7.91016 81.1737 7.94873 81.5066 8.01301C81.8394 8.0773 82.1723 8.19302 82.5052 8.3473C82.838 8.50159 83.1581 8.69445 83.4526 8.93874C83.7598 9.18302 84.0287 9.47874 84.2591 9.81303C84.4896 10.1473 84.6816 10.5459 84.8097 10.9959C84.9505 11.433 85.0145 11.9345 85.0145 12.4873C85.0145 13.0402 84.9505 13.5416 84.8097 13.9788C84.6688 14.4159 84.4896 14.8145 84.2591 15.1616C84.0287 15.5088 83.7598 15.8045 83.4526 16.0359C83.1453 16.2802 82.8252 16.4731 82.5052 16.6274C82.1723 16.7817 81.8394 16.8845 81.5066 16.9617C81.1865 17.0259 80.8664 17.0517 80.5592 17.0517ZM78.5363 15.5988H80.2263C80.6872 15.5988 81.1225 15.5345 81.5194 15.4188C81.9034 15.3031 82.2363 15.1102 82.518 14.8659C82.7996 14.6216 83.0173 14.3002 83.1837 13.9145C83.3502 13.5288 83.427 13.0531 83.427 12.4873C83.427 11.9345 83.3502 11.4588 83.1837 11.0602C83.0173 10.6745 82.7996 10.353 82.518 10.1087C82.2363 9.86446 81.9034 9.6716 81.5194 9.55588C81.1225 9.44017 80.6872 9.37588 80.2263 9.37588H78.5363V15.5988Z" />
<path fill-rule="evenodd" clip-rule="evenodd" d="M95.103 17.0517H93.3619L92.4913 14.9302H88.5352L87.6518 17.0517H85.9363L89.9435 7.91016H91.2366L95.103 17.0517ZM89.1498 13.4773H91.8895L90.5581 10.1473L89.1498 13.4773Z" />
<path d="M104.321 17.0517H102.644L98.0349 10.4173V17.0517H96.4985V7.91016H98.1757L102.785 14.5445V7.91016H104.321V17.0517Z" />
<path d="M110.978 17.2828C110.338 17.2828 109.724 17.167 109.16 16.9227C108.597 16.6785 108.098 16.3442 107.688 15.9199C107.278 15.4956 106.946 14.9813 106.715 14.4027C106.485 13.8242 106.357 13.1813 106.357 12.487C106.357 11.8184 106.472 11.1884 106.69 10.6098C106.92 10.0313 107.24 9.51697 107.65 9.09268C108.059 8.66839 108.546 8.32125 109.109 8.07696C109.673 7.83267 110.3 7.7041 110.966 7.7041C111.58 7.7041 112.169 7.81982 112.732 8.03839C113.309 8.26982 113.808 8.64268 114.192 9.15697L114.346 9.36269L113.04 10.3141L112.886 10.1084C112.656 9.79983 112.361 9.55554 112.028 9.40126C111.683 9.24697 111.324 9.15697 110.94 9.15697C110.505 9.15697 110.095 9.24697 109.737 9.42697C109.365 9.60697 109.045 9.85126 108.776 10.147C108.508 10.4556 108.29 10.8027 108.149 11.2141C107.995 11.6127 107.919 12.0499 107.919 12.487C107.919 12.9627 107.995 13.3999 108.149 13.7984C108.303 14.197 108.508 14.557 108.776 14.8527C109.032 15.1485 109.353 15.3799 109.724 15.547C110.082 15.7142 110.492 15.8042 110.94 15.8042C111.427 15.8042 111.862 15.7142 112.233 15.5213C112.604 15.3284 112.95 15.0584 113.232 14.6984L113.398 14.4927L114.55 15.4699L114.41 15.6627C114 16.2156 113.488 16.627 112.912 16.8842C112.361 17.1413 111.695 17.2828 110.978 17.2828Z" />
<path d="M122.424 17.0517H116.292V7.91016H122.206V9.37588H117.828V11.5616H121.912V13.0273H117.828V15.5988H122.424V17.0517Z" />
<path d="M133.366 16.8328H131.842V9.15697H129V7.7041H136.208V9.16983H133.366V16.8328Z" />
<path d="M141.342 16.8328H140.01L136.528 7.7041H138.231L140.714 14.3642L143.275 7.7041H144.901L141.342 16.8328Z" />
<path fill-rule="evenodd" clip-rule="evenodd" d="M0 0H152V25H0V0ZM1 1H151V24H1V1Z" />
</svg>
