<svg  viewBox="0 0 18 16" fill="none" xmlns="http://www.w3.org/2000/svg">
<path fill-rule="evenodd" clip-rule="evenodd" d="M0.000335693 3C0.000335693 1.34315 1.34348 0 3.00034 0H15.0003C16.6572 0 18.0003 1.34315 18.0003 3V13C18.0003 14.6569 16.6572 16 15.0003 16H3.00034C1.34348 16 0.000335693 14.6569 0.000335693 13V3ZM3.00034 2C2.44805 2 2.00034 2.44772 2.00034 3V13C2.00034 13.5523 2.44805 14 3.00034 14H15.0003C15.5526 14 16.0003 13.5523 16.0003 13V3C16.0003 2.44772 15.5526 2 15.0003 2H3.00034Z" />
<path fill-rule="evenodd" clip-rule="evenodd" d="M7.70744 4.29289C8.09797 4.68342 8.09797 5.31658 7.70744 5.70711L5.70744 7.70711C5.31692 8.09763 4.68375 8.09763 4.29323 7.70711C3.9027 7.31658 3.9027 6.68342 4.29323 6.29289L6.29323 4.29289C6.68375 3.90237 7.31692 3.90237 7.70744 4.29289Z" />
<path fill-rule="evenodd" clip-rule="evenodd" d="M13.7074 8.29289C14.098 8.68342 14.098 9.31658 13.7074 9.70711L11.7074 11.7071C11.3169 12.0976 10.6838 12.0976 10.2932 11.7071C9.9027 11.3166 9.9027 10.6834 10.2932 10.2929L12.2932 8.29289C12.6838 7.90237 13.3169 7.90237 13.7074 8.29289Z" />
<path fill-rule="evenodd" clip-rule="evenodd" d="M12.7074 4.29289C13.098 4.68342 13.098 5.31658 12.7074 5.70711L6.70744 11.7071C6.31692 12.0976 5.68375 12.0976 5.29323 11.7071C4.9027 11.3166 4.9027 10.6834 5.29323 10.2929L11.2932 4.29289C11.6838 3.90237 12.3169 3.90237 12.7074 4.29289Z" />
</svg>
