<svg  viewBox="0 0 97 67" fill="none" xmlns="http://www.w3.org/2000/svg">
<path d="M42.0545 48.7273C42.0545 53.908 40.0821 58.2487 36.1373 61.7492C32.1924 65.2497 27.2614 67 21.3442 67C15.5679 67 10.5664 64.9697 6.33987 60.9091C2.11329 56.9885 -6.25228e-06 51.2476 -5.59127e-06 43.6865C-5.19955e-06 39.2058 0.986201 34.7252 2.95861 30.2445C4.79013 25.7638 7.11474 21.5632 9.93246 17.6426C12.7502 13.722 15.8497 10.2215 19.2309 7.14107C22.6122 4.06061 25.8526 1.68025 28.9521 1.68046e-06L39.5185 10.2915C37.8279 10.9916 36.0668 12.0418 34.2353 13.442C32.4038 14.8422 30.7131 16.3824 29.1634 18.0627C27.6137 19.883 26.3457 21.8433 25.3595 23.9436C24.3733 26.1839 23.8802 28.3542 23.8802 30.4545C29.093 31.1546 33.4604 33.0449 36.9826 36.1254C40.3638 39.3459 42.0545 43.5465 42.0545 48.7273ZM97 48.7273C97 53.908 95.0276 58.2487 91.0828 61.7492C87.138 65.2497 82.207 67 76.2898 67C70.5134 67 65.512 64.9697 61.2854 60.9091C57.0588 56.9885 54.9455 51.2476 54.9455 43.6865C54.9455 39.2059 55.9317 34.7252 57.9041 30.2445C59.7357 25.7638 62.0603 21.5632 64.878 17.6426C67.6957 13.7221 70.7952 10.2215 74.1765 7.14107C77.5577 4.06061 80.7981 1.68026 83.8976 6.48395e-06L94.4641 10.2915C92.7734 10.9916 91.0124 12.0418 89.1808 13.442C87.3493 14.8422 85.6587 16.3825 84.1089 18.0627C82.5592 19.883 81.2912 21.8433 80.305 23.9436C79.3188 26.1839 78.8257 28.3542 78.8257 30.4546C84.0385 31.1547 88.406 33.0449 91.9281 36.1254C95.3094 39.3459 97 43.5465 97 48.7273Z" />
</svg>
