<svg viewBox="0 0 20 16" fill="none" xmlns="http://www.w3.org/2000/svg">
<path fill-rule="evenodd" clip-rule="evenodd" d="M2.00034 10C2.00034 8.59571 2.36999 7.21615 3.07213 6C3.77428 4.78385 4.78418 3.77394 6.00034 3.0718C7.21649 2.36965 8.59604 2 10.0003 2C11.4046 2 12.7842 2.36965 14.0003 3.0718C15.2165 3.77394 16.2264 4.78385 16.9285 6C17.6307 7.21615 18.0003 8.59571 18.0003 10C18.0003 11.4043 17.6307 12.7838 16.9285 14C16.6524 14.4783 16.8163 15.0899 17.2946 15.366C17.7729 15.6422 18.3844 15.4783 18.6606 15C19.5383 13.4798 20.0003 11.7554 20.0003 10C20.0003 8.24463 19.5383 6.52019 18.6606 5C17.7829 3.47981 16.5205 2.21743 15.0003 1.33975C13.4801 0.462063 11.7557 1.36334e-07 10.0003 0C8.24497 -7.67294e-08 6.52053 0.462062 5.00034 1.33975C3.48014 2.21743 2.21777 3.47981 1.34008 5C0.462399 6.52019 0.000335889 8.24463 0.000335693 10C0.000335497 11.7554 0.462398 13.4798 1.34008 15C1.61622 15.4783 2.22781 15.6422 2.70611 15.366C3.1844 15.0899 3.34827 14.4783 3.07213 14C2.36999 12.7838 2.00034 11.4043 2.00034 10Z" />
<path fill-rule="evenodd" clip-rule="evenodd" d="M8.01745 11.7389C7.98316 11.9993 8.00051 12.2639 8.06848 12.5176C8.13646 12.7713 8.25374 13.0092 8.41363 13.2175C8.57352 13.4259 8.77288 13.6007 9.00034 13.7321C9.22779 13.8634 9.47889 13.9486 9.73928 13.9829C9.99968 14.0172 10.2643 13.9998 10.518 13.9319C10.7717 13.8639 11.0095 13.7466 11.2179 13.5867C11.4262 13.4268 11.6011 13.2275 11.7324 13C11.8637 12.7725 11.9489 12.5214 11.9832 12.2611C12.0175 12.0007 12.0002 11.7361 11.9322 11.4824C11.8642 11.2287 11.7469 10.9908 11.587 10.7825C11.4272 10.5741 11.2278 10.3993 11.0003 10.2679C10.7729 10.1366 10.5218 10.0514 10.2614 10.0171C10.001 9.98283 9.73639 10.0002 9.4827 10.0681C9.229 10.1361 8.99118 10.2534 8.78281 10.4133C8.57444 10.5732 8.39961 10.7725 8.26828 11C8.13696 11.2275 8.05173 11.4786 8.01745 11.7389Z" />
<path fill-rule="evenodd" clip-rule="evenodd" d="M14.625 6.21913C14.1938 5.87412 13.5645 5.94404 13.2195 6.3753L9.21947 11.3753C8.87446 11.8066 8.94438 12.4359 9.37564 12.7809C9.8069 13.1259 10.4362 13.056 10.7812 12.6247L14.7812 7.62469C15.1262 7.19343 15.0563 6.56414 14.625 6.21913Z" />
<path fill-rule="evenodd" clip-rule="evenodd" d="M4.90177 10.0682C5.44473 10.1693 5.96681 9.81103 6.06787 9.26807C6.25553 8.25984 6.82327 7.3622 7.6538 6.76059C8.48434 6.15897 9.51422 5.89934 10.5307 6.03532C11.0781 6.10855 11.5812 5.72415 11.6545 5.17674C11.7277 4.62933 11.3433 4.12621 10.7959 4.05298C9.27117 3.84901 7.72634 4.23846 6.48054 5.14088C5.23473 6.04331 4.38313 7.38976 4.10164 8.9021C4.00058 9.44506 4.35881 9.96714 4.90177 10.0682Z" />
</svg>
