<svg  viewBox="0 0 16 19" fill="none" xmlns="http://www.w3.org/2000/svg">
<path fill-rule="evenodd" clip-rule="evenodd" d="M6.00049 13.0002C6.55277 13.0002 7.00049 13.4479 7.00049 14.0002V18.0002C7.00049 18.5524 6.55277 19.0002 6.00049 19.0002C5.4482 19.0002 5.00049 18.5524 5.00049 18.0002V14.0002C5.00049 13.4479 5.4482 13.0002 6.00049 13.0002Z" />
<path fill-rule="evenodd" clip-rule="evenodd" d="M3.00049 2.00003C2.4482 2.00003 2.00049 2.44775 2.00049 3.00003V9.00003C2.00049 9.55231 2.4482 10 3.00049 10H13.0005C13.5528 10 14.0005 9.55232 14.0005 9.00003V3.00003C14.0005 2.44775 13.5528 2.00003 13.0005 2.00003H3.00049ZM0.000488281 3.00003C0.000488281 1.34318 1.34363 3.05176e-05 3.00049 3.05176e-05H13.0005C14.6573 3.05176e-05 16.0005 1.34318 16.0005 3.00003V9.00003C16.0005 10.6569 14.6573 12 13.0005 12H3.00049C1.34363 12 0.000488281 10.6569 0.000488281 9.00003V3.00003Z" />
<path fill-rule="evenodd" clip-rule="evenodd" d="M6.45484 8.72742C6.25488 8.8474 6.00049 8.70336 6.00049 8.47017V3.52989C6.00049 3.2967 6.25488 3.15267 6.45484 3.27264L10.5717 5.74278C10.7659 5.8593 10.7659 6.14076 10.5717 6.25728L6.45484 8.72742Z" />
<path fill-rule="evenodd" clip-rule="evenodd" d="M7.00049 15.0002H1C0.447715 15.0002 0 15.4479 0 16.0002C0 16.5524 0.447715 17.0002 1 17.0002L7.00049 17.0002V15.0002ZM9.00049 17.0002H15.0002C15.5525 17.0002 16.0002 16.5524 16.0002 16.0002C16.0002 15.4479 15.5525 15.0002 15.0002 15.0002H9.00049V17.0002Z" />
</svg>
