<svg width="29" height="10" viewBox="0 0 29 10" fill="none" xmlns="http://www.w3.org/2000/svg">
<path d="M14.8809 3.3772C14.865 4.63093 16.0035 5.33053 16.8611 5.74652C17.7422 6.17328 18.0382 6.44698 18.0347 6.82868C18.0281 7.41276 17.3318 7.67056 16.6803 7.68058C15.5435 7.69811 14.8826 7.37509 14.3571 7.13079L13.9476 9.03807C14.4748 9.27987 15.451 9.49075 16.4633 9.5C18.8394 9.5 20.394 8.33249 20.4024 6.52232C20.4117 4.22496 17.21 4.0978 17.2319 3.07095C17.2394 2.75958 17.5379 2.42731 18.1919 2.34283C18.5157 2.30015 19.4094 2.26749 20.4226 2.73193L20.8203 0.886595C20.2754 0.689106 19.5751 0.5 18.7032 0.5C16.4667 0.5 14.8936 1.68341 14.8809 3.3772ZM24.6417 0.658949C24.2078 0.658949 23.8421 0.910872 23.679 1.29747L20.2847 9.36446H22.6591L23.1316 8.06467H26.0331L26.3072 9.36446H28.4L26.5738 0.658949H24.6417ZM24.9739 3.01063L25.6591 6.27965H23.7824L24.9739 3.01063ZM12.0021 0.659058L10.1305 9.36435H12.3931L14.2639 0.65884H12.0021V0.659058ZM8.65488 0.65884L6.29982 6.58426L5.34717 1.54612C5.23538 0.983706 4.79395 0.658949 4.30373 0.658949H0.453946L0.400024 0.911743C1.19037 1.08245 2.08834 1.35778 2.63237 1.65238C2.96531 1.83234 3.06024 1.98966 3.16962 2.4173L4.97398 9.36446H7.36502L11.0308 0.658949H8.65488" fill="#254AA5"/>
</svg>
