<svg width="32" height="32" viewBox="0 0 32 32" fill="none" xmlns="http://www.w3.org/2000/svg">
<rect width="32" height="32" rx="6" fill="#242428"/>
<path d="M14.137 11.647C14.137 8.07432 8.8863 8.91047 8.8863 7.05574C8.8863 6.38682 9.35538 6.06757 9.97578 6.08277C10.6718 6.09797 11.156 6.50845 11.2014 7.19257H14.0008C13.8949 5.1554 12.3363 4 10.0212 4C7.79682 4 6.14747 5.125 6.14747 7.14696C6.11721 10.9324 11.4284 9.86824 11.4284 11.8446C11.4284 12.4679 10.9442 12.848 10.1876 12.848C9.4613 12.848 8.94683 12.4527 8.87117 11.6318H6.11721C6.19287 13.7905 7.9784 14.9307 10.2633 14.9307C12.7449 14.9307 14.137 13.4409 14.137 11.647Z" fill="white"/>
<path d="M21.2221 4.15203H17.2425V14.8243H21.2221C24.6116 14.8243 26.7906 12.6503 26.7906 9.48818C26.7906 6.31081 24.6116 4.15203 21.2221 4.15203ZM19.83 12.5743V6.37162H21.0557C23.0077 6.37162 24.1577 7.52703 24.1577 9.48818C24.1577 11.4493 23.0077 12.5743 21.0557 12.5743H19.83Z" fill="white"/>
<path d="M6 19.4105H8.81449V28H11.402V19.4105H14.2165V17.3277H6V19.4105Z" fill="white"/>
<path d="M21.6131 25.3851L18.9802 17.3277H16.2263L19.9941 28H23.2322L27 17.3277H24.2612L21.6131 25.3851Z" fill="white"/>
</svg>
