<svg width="40" height="16" fill="none" xmlns="http://www.w3.org/2000/svg"><path d="M7.313 2.434c-.469.507-1.219.906-1.969.85-.094-.686.273-1.414.703-1.863C6.516.9 7.337.529 8 .5c.078.714-.226 1.413-.687 1.934zm.68.985c-1.086-.057-2.016.563-2.532.563-.523 0-1.312-.535-2.172-.52-1.117.014-2.156.592-2.726 1.512C-.61 6.815.258 9.541 1.39 11.04c.555.742 1.219 1.556 2.094 1.527.828-.028 1.156-.492 2.156-.492 1.008 0 1.297.492 2.172.478.906-.014 1.476-.742 2.031-1.485.633-.841.89-1.662.906-1.705-.015-.014-1.75-.62-1.765-2.448-.016-1.527 1.367-2.255 1.43-2.297-.782-1.057-2-1.17-2.423-1.2zm6.273-2.07v11.125h1.89V8.671h2.618c2.39 0 4.07-1.499 4.07-3.668 0-2.17-1.648-3.654-4.008-3.654h-4.57zm1.89 1.456h2.18c1.64 0 2.578.8 2.578 2.205 0 1.406-.937 2.212-2.586 2.212h-2.171V2.805zm10.141 9.755c1.188 0 2.29-.55 2.79-1.42h.038v1.334h1.75V6.937c0-1.606-1.406-2.64-3.57-2.64-2.008 0-3.492 1.048-3.547 2.49h1.703c.14-.685.836-1.135 1.79-1.135 1.156 0 1.804.493 1.804 1.399v.614l-2.36.128c-2.195.121-3.382.942-3.382 2.37 0 1.44 1.226 2.397 2.984 2.397zm.508-1.32c-1.008 0-1.648-.443-1.648-1.12 0-.7.617-1.107 1.796-1.17l2.102-.122v.628c0 1.042-.969 1.784-2.25 1.784zm6.406 4.26c1.844 0 2.711-.642 3.469-2.59L40 4.403h-1.922l-2.226 6.573h-.04l-2.226-6.573H31.61l3.203 8.1-.172.492c-.29.835-.758 1.156-1.594 1.156a6.59 6.59 0 01-.554-.028v1.334c.109.029.578.043.718.043z" fill="#000"/></svg>