<svg width="1727" height="1049" fill="none" xmlns="http://www.w3.org/2000/svg"><path d="M66.945 199.744L128.28 49.188c.581-1.425 2.487-1.688 3.432-.472l99.717 128.395c.944 1.216.218 2.998-1.307 3.208L69.07 202.48c-1.525.209-2.706-1.31-2.125-2.736z" stroke="#FB4C4C" stroke-width="4"/><g filter="url(#filter0_f)"><path d="M293.403 914.93l-15.401 95.81c-.244 1.52-2.042 2.2-3.236 1.23l-75.273-61.239c-1.194-.972-.889-2.872.55-3.421l90.673-34.566c1.439-.549 2.932.666 2.687 2.186z" stroke="#FB4C4C" stroke-width="4"/></g><path d="M1386.26 424.217l258.78 53.719c1.5.312 2.11 2.14 1.08 3.289L1470.21 678.47c-1.02 1.149-2.91.758-3.39-.704l-82.86-250.964c-.49-1.462.8-2.898 2.3-2.585z" stroke="#FB4C4C" stroke-width="4"/><defs><filter id="filter0_f" x="180.754" y="894.607" width="130.676" height="135.818" filterUnits="userSpaceOnUse" color-interpolation-filters="sRGB"><feFlood flood-opacity="0" result="BackgroundImageFix"/><feBlend in="SourceGraphic" in2="BackgroundImageFix" result="shape"/><feGaussianBlur stdDeviation="8" result="effect1_foregroundBlur"/></filter></defs></svg>