<svg width="42" height="16" fill="none" xmlns="http://www.w3.org/2000/svg"><g clip-path="url(#clip0)"><path d="M19.892 7.817v4.69h-1.514V.924h4.015a3.683 3.683 0 012.6 1.003 3.212 3.212 0 011.087 2.444 3.16 3.16 0 01-.27 1.346 3.211 3.211 0 01-.816 1.113c-.703.658-1.57.986-2.6.986h-2.502zm0-5.467v4.043h2.539a2.033 2.033 0 001.498-.598 1.945 1.945 0 000-2.83 1.981 1.981 0 00-.682-.467 2.006 2.006 0 00-.816-.149h-2.54v.001zm9.677 1.973c1.119 0 2.002.294 2.65.882.648.588.971 1.393.97 2.417v4.885h-1.448v-1.1h-.066c-.627.905-1.46 1.358-2.501 1.358-.889 0-1.632-.258-2.23-.776a2.483 2.483 0 01-.672-.87 2.442 2.442 0 01-.225-1.07c0-.82.315-1.473.946-1.957.63-.484 1.473-.727 2.526-.728.899 0 1.64.161 2.221.485v-.34a1.67 1.67 0 00-.162-.728 1.699 1.699 0 00-.463-.59 2.166 2.166 0 00-1.462-.542c-.845 0-1.515.35-2.008 1.052l-1.333-.825c.733-1.035 1.82-1.553 3.257-1.553zm-1.96 5.758a1.195 1.195 0 00.502.97c.336.259.752.396 1.177.388a2.436 2.436 0 001.704-.695c.501-.464.752-1.008.752-1.633-.472-.37-1.13-.554-1.975-.554-.615 0-1.128.145-1.538.437-.415.296-.621.655-.621 1.087zm13.894-5.499L36.447 16h-1.563l1.876-3.995-3.324-7.423h1.645l2.403 5.693h.033l2.337-5.693h1.649z" fill="#5F6368"/><path d="M13.773 6.806c0-.454-.038-.906-.116-1.353H7.27v2.562h3.657c-.074.41-.233.8-.465 1.147a3.108 3.108 0 01-.887.875v1.664h2.183c1.278-1.158 2.014-2.87 2.014-4.895z" fill="#4285F4"/><path d="M7.271 13.308c1.827 0 3.366-.59 4.488-1.606l-2.183-1.664c-.607.405-1.39.636-2.305.636-1.766 0-3.265-1.17-3.801-2.747H1.22v1.715a6.699 6.699 0 002.496 2.676 6.861 6.861 0 003.554.99z" fill="#34A853"/><path d="M3.47 7.928a3.921 3.921 0 010-2.547V3.666H1.22a6.56 6.56 0 000 5.976l2.25-1.714z" fill="#FBBC04"/><path d="M7.271 2.634a3.712 3.712 0 012.598.998l1.932-1.9A6.57 6.57 0 007.271 0a6.86 6.86 0 00-3.554.99 6.699 6.699 0 00-2.496 2.676L3.47 5.381c.536-1.577 2.035-2.747 3.801-2.747z" fill="#EA4335"/></g><defs><clipPath id="clip0"><path fill="#fff" transform="translate(.5)" d="M0 0h41v16H0z"/></clipPath></defs></svg>