<svg viewBox="0 0 152 25" fill="none" xmlns="http://www.w3.org/2000/svg"><path d="M29.006 9.723a1.544 1.544 0 00-.679-.604 2.103 2.103 0 00-.883-.193c-.23 0-.448.025-.666.09-.217.051-.41.141-.589.257a1.42 1.42 0 00-.422.45 1.377 1.377 0 00-.154.656c0 .193.026.373.09.514.064.154.153.283.294.411.141.116.32.232.564.348.23.102.524.205.857.32.333.104.653.22.96.348.308.116.59.27.82.463.243.193.422.424.576.694.14.283.218.63.218 1.054 0 .425-.09.81-.256 1.12a2.352 2.352 0 01-.679.783c-.282.206-.602.36-.96.463a4.109 4.109 0 01-1.127.155c-.256 0-.5-.026-.755-.065a3.295 3.295 0 01-1.37-.565 2.393 2.393 0 01-.525-.553l.87-.72c.193.321.449.553.782.72a2.29 2.29 0 001.715.141 1.97 1.97 0 00.602-.283c.18-.128.32-.283.435-.463.115-.192.167-.398.167-.643 0-.27-.039-.488-.128-.655a1.318 1.318 0 00-.41-.437 4.039 4.039 0 00-.704-.335c-.282-.103-.615-.205-.999-.347a6.437 6.437 0 01-.845-.334 2.878 2.878 0 01-.678-.463 1.812 1.812 0 01-.448-.656 2.49 2.49 0 01-.167-.925c0-.412.077-.772.243-1.08a2.38 2.38 0 01.653-.772c.27-.206.59-.36.935-.463A3.84 3.84 0 0127.43 8c.487 0 .922.077 1.332.231a2.7 2.7 0 011.075.785l-.832.707z" fill="#242428"/><path d="M26.97 17.296c-.269 0-.537-.026-.793-.078a3.777 3.777 0 01-.769-.218 2.93 2.93 0 01-.704-.399 2.205 2.205 0 01-.576-.617L24 15.791l1.28-1.054.154.257c.166.27.384.476.666.617a2.1 2.1 0 001.536.129c.192-.052.371-.142.525-.244.153-.103.269-.232.371-.399a.93.93 0 00.128-.514 1.2 1.2 0 00-.102-.527.832.832 0 00-.333-.335c-.167-.115-.384-.205-.64-.295-.282-.103-.615-.206-.999-.348a7.893 7.893 0 01-.883-.347 3.06 3.06 0 01-.743-.514 2.208 2.208 0 01-.512-.746c-.128-.283-.18-.63-.18-1.015 0-.45.09-.862.27-1.209.179-.347.422-.63.73-.861.294-.219.64-.399 1.01-.515a3.929 3.929 0 011.166-.167c.512 0 .986.077 1.421.244.435.168.832.45 1.178.862l.166.193-1.254 1.092-.154-.257a1.247 1.247 0 00-.563-.501c-.436-.193-.922-.206-1.383-.09a2.052 2.052 0 00-.512.219.901.901 0 00-.333.36 1.105 1.105 0 00-.128.527c0 .167.026.308.077.424a.753.753 0 00.23.309c.116.102.282.205.5.295.217.103.499.206.832.309.333.103.665.218.986.347.332.129.627.296.883.501.269.206.486.476.64.785.154.321.243.707.243 1.17 0 .475-.102.887-.281 1.247a2.727 2.727 0 01-.743.874 3.182 3.182 0 01-1.05.502c-.41.128-.82.18-1.229.18zm-2.29-1.416c.102.116.204.219.32.309a2.7 2.7 0 00.588.334c.218.09.436.154.666.193a4.079 4.079 0 001.767-.077c.333-.09.627-.232.883-.424.244-.18.449-.425.602-.708.154-.282.23-.617.23-1.002 0-.373-.063-.695-.179-.939a1.96 1.96 0 00-.499-.617 3.294 3.294 0 00-.755-.424 20.487 20.487 0 00-.948-.335 8.369 8.369 0 01-.883-.321 2.625 2.625 0 01-.627-.386 1.383 1.383 0 01-.372-.501 1.56 1.56 0 01-.115-.617c0-.296.064-.553.192-.785a1.68 1.68 0 01.5-.54c.192-.128.422-.231.665-.283a2.542 2.542 0 011.716.116c.243.103.448.257.614.463l.423-.373a2.381 2.381 0 00-.794-.527 3.45 3.45 0 00-1.242-.206c-.358 0-.691.052-1.011.142-.32.103-.602.244-.858.424-.243.18-.435.411-.576.681a2.06 2.06 0 00-.218.965c0 .321.051.591.141.823.09.218.23.411.384.578.166.167.371.309.602.412.243.115.525.231.82.321.383.129.716.244.998.347.307.103.563.219.755.36.218.142.384.322.5.527.102.206.166.463.166.772 0 .295-.064.553-.205.784a1.715 1.715 0 01-.512.54 2.362 2.362 0 01-.679.322 2.537 2.537 0 01-1.894-.168 2.1 2.1 0 01-.717-.578l-.448.398zm11.892 1.158a4.612 4.612 0 01-1.805-.347 4.354 4.354 0 01-1.42-.939 4.233 4.233 0 01-.936-1.44 4.907 4.907 0 01-.332-1.813c0-.655.115-1.247.332-1.812a4.234 4.234 0 01.935-1.44 4.16 4.16 0 011.421-.939 4.611 4.611 0 011.805-.347c.653 0 1.255.116 1.806.347.55.232 1.024.54 1.42.939.398.398.718.887.935 1.44.218.553.333 1.157.333 1.813 0 .655-.115 1.247-.333 1.812a4.234 4.234 0 01-.934 1.44 4.16 4.16 0 01-1.421.939 4.579 4.579 0 01-1.806.347zm0-.951a3.287 3.287 0 002.459-1.055c.294-.321.537-.707.69-1.144.167-.437.244-.9.244-1.389 0-.5-.077-.964-.243-1.388a3.69 3.69 0 00-.691-1.144 3.294 3.294 0 00-1.076-.772 3.246 3.246 0 00-1.383-.283 3.286 3.286 0 00-3.15 2.199c-.165.437-.242.9-.242 1.388 0 .502.077.965.243 1.39.166.436.397.81.691 1.143a3.287 3.287 0 002.458 1.054z" fill="#242428"/><path d="M36.572 17.295c-.691 0-1.318-.115-1.895-.36a4.652 4.652 0 01-1.497-1.003 4.499 4.499 0 01-.986-1.517 5.131 5.131 0 01-.346-1.903c0-.681.115-1.324.346-1.902.23-.592.563-1.093.986-1.518a4.652 4.652 0 011.498-1.003 4.832 4.832 0 011.894-.36c.692 0 1.319.116 1.895.36a4.651 4.651 0 011.498 1.003c.423.425.755.939.986 1.518.23.578.358 1.221.358 1.902 0 .682-.115 1.325-.345 1.903a4.375 4.375 0 01-.986 1.517 4.652 4.652 0 01-1.498 1.003 5.093 5.093 0 01-1.908.36zm0-9.064c-.614 0-1.19.103-1.702.321a4.17 4.17 0 00-1.332.888 4.25 4.25 0 00-.883 1.35 4.67 4.67 0 00-.32 1.71c0 .617.102 1.195.32 1.71.205.527.499.977.883 1.35.371.372.82.668 1.332.887.512.218 1.088.321 1.702.321.615 0 1.191-.103 1.703-.321.512-.219.96-.515 1.332-.887a4.25 4.25 0 00.883-1.35 4.72 4.72 0 00.32-1.71c0-.618-.102-1.196-.32-1.71a3.745 3.745 0 00-.883-1.35 4.17 4.17 0 00-1.332-.888c-.512-.218-1.075-.321-1.703-.321zm0 8.113a3.56 3.56 0 01-2.637-1.132 3.595 3.595 0 01-.743-1.221 4.112 4.112 0 01-.268-1.492c0-.527.09-1.028.268-1.49.18-.464.423-.875.743-1.222a3.38 3.38 0 011.152-.823 3.531 3.531 0 011.485-.309 3.562 3.562 0 012.637 1.131c.32.348.577.76.743 1.222.18.463.27.964.27 1.492 0 .527-.09 1.028-.27 1.491a3.798 3.798 0 01-.742 1.221 3.38 3.38 0 01-1.153.823 3.531 3.531 0 01-1.485.309zm0-7.162a3.1 3.1 0 00-1.267.258 2.89 2.89 0 00-.986.707c-.282.295-.5.655-.64 1.054a3.59 3.59 0 00-.23 1.298c0 .463.076.9.23 1.3.154.398.371.758.64 1.053.269.296.602.54.986.708.384.167.806.257 1.267.257.461 0 .896-.09 1.268-.257a2.89 2.89 0 00.986-.708c.281-.295.486-.655.64-1.054.153-.399.23-.836.23-1.299 0-.462-.077-.9-.23-1.298a3.367 3.367 0 00-.64-1.054 2.89 2.89 0 00-.986-.707 3.1 3.1 0 00-1.268-.258zm13.059.785a2.365 2.365 0 00-.96-.784 2.761 2.761 0 00-1.19-.257c-.474 0-.922.102-1.32.295a3.458 3.458 0 00-1.036.785 3.659 3.659 0 00-.679 1.144 3.776 3.776 0 00-.243 1.363c0 .501.077.977.243 1.401.166.437.384.81.679 1.132a2.93 2.93 0 001.037.758c.397.193.845.283 1.331.283.525 0 .999-.103 1.408-.309a3.1 3.1 0 001.076-.9l.768.643c-.384.515-.858.9-1.395 1.145-.551.244-1.166.36-1.844.36-.615 0-1.19-.116-1.728-.348a4.186 4.186 0 01-1.383-.938 4.15 4.15 0 01-.922-1.427 4.909 4.909 0 01-.333-1.813c0-.63.103-1.222.32-1.774a4.3 4.3 0 01.91-1.44 4.066 4.066 0 011.382-.965 4.36 4.36 0 011.754-.347c.576 0 1.14.103 1.677.322.538.205.986.552 1.357 1.041l-.909.63z" fill="#242428"/><path d="M47.48 17.295a4.544 4.544 0 01-3.29-1.362 4.666 4.666 0 01-.973-1.518 5.151 5.151 0 01-.359-1.915c0-.669.116-1.299.333-1.877a4.63 4.63 0 01.96-1.518 4.52 4.52 0 011.46-1.015 4.649 4.649 0 011.856-.373c.615 0 1.204.116 1.767.334a3.366 3.366 0 011.46 1.119l.153.205-1.306.952-.153-.206a2.27 2.27 0 00-.858-.707 2.67 2.67 0 00-2.292.026c-.371.18-.691.424-.96.72a3.171 3.171 0 00-.627 1.067c-.154.398-.23.835-.23 1.273 0 .475.076.913.23 1.311.153.399.358.759.627 1.054.256.296.576.528.947.695a2.86 2.86 0 001.217.257c.486 0 .922-.09 1.293-.283a3.03 3.03 0 00.998-.823l.167-.206 1.152.978-.14.192c-.41.553-.922.965-1.499 1.222-.55.27-1.216.398-1.933.398zm0-9.064c-.602 0-1.152.116-1.651.334-.5.219-.935.528-1.306.9a4.078 4.078 0 00-.845 1.35 4.526 4.526 0 00-.307 1.685c0 .617.102 1.195.32 1.723.204.514.499.977.87 1.35.371.372.807.668 1.306.887.5.218 1.05.321 1.626.321.653 0 1.229-.116 1.741-.347.435-.193.82-.489 1.152-.874l-.384-.322a3.325 3.325 0 01-.998.759c-.448.218-.96.334-1.524.334a3.3 3.3 0 01-1.434-.308 3.402 3.402 0 01-1.114-.823 3.686 3.686 0 01-.717-1.209 4.394 4.394 0 01-.256-1.491c0-.502.09-.99.256-1.453.167-.463.423-.875.73-1.222a3.62 3.62 0 011.114-.848 3.292 3.292 0 011.421-.322c.448 0 .884.09 1.293.283.346.155.64.386.896.669l.474-.347a2.805 2.805 0 00-1.075-.746 4.746 4.746 0 00-1.588-.283zm5.582-.038h1.025v8.627h-1.025V8.193z" fill="#242428"/><path d="M54.33 17.076h-1.536V7.935h1.536v9.141zm-1.012-.514h.513V8.449h-.513v8.113zm6.594-8.369h.96l3.648 8.627h-1.19l-.87-2.121h-4.29l-.883 2.121h-1.152l3.777-8.627zm.46 1.311h-.025l-1.78 4.243h3.508l-1.703-4.243z" fill="#242428"/><path d="M64.905 17.076h-1.741l-.871-2.121h-3.956l-.883 2.121h-1.716l4.007-9.141h1.293l3.867 9.141zm-1.409-.514h.628l-3.431-8.113h-.628l-3.559 8.113h.59l.883-2.122h4.634l.883 2.122zm-1.05-2.559h-4.275l1.997-4.757h.371l1.908 4.757zm-3.494-.514h2.74l-1.332-3.33-1.408 3.33zm7.618-5.296h1.023v7.676h3.93v.951h-4.941V8.193h-.013z" fill="#242428"/><path d="M71.767 17.076h-5.454V7.935h1.536v7.675h3.93v1.466h-.012zm-4.942-.514h4.43v-.437h-3.93V8.449h-.513v8.113h.013zM77.269 8.18h3.303c.282 0 .576.038.896.103.32.064.627.167.935.308.307.142.614.322.896.553.281.231.538.501.755.823.218.321.397.694.525 1.106.128.424.192.887.192 1.414a4.78 4.78 0 01-.192 1.414 4.009 4.009 0 01-.525 1.106 3.872 3.872 0 01-.755.823 4.123 4.123 0 01-.896.553 4.563 4.563 0 01-1.83.411h-3.304V8.18zm1.011 7.675h1.946c.5 0 .948-.064 1.37-.192a2.908 2.908 0 001.088-.605c.308-.27.55-.617.73-1.041.18-.424.269-.926.269-1.517 0-.592-.09-1.106-.269-1.517a2.82 2.82 0 00-.73-1.042 2.908 2.908 0 00-1.088-.604 4.705 4.705 0 00-1.37-.193H78.28v6.711z" fill="#242428"/><path d="M80.56 17.051H77V7.91h3.56c.294 0 .614.038.947.103.332.064.665.18.998.334.333.154.653.347.948.591a4.036 4.036 0 011.357 2.057c.14.438.204.939.204 1.492s-.063 1.054-.204 1.491a4.8 4.8 0 01-.55 1.183 3.53 3.53 0 01-.807.874 5.018 5.018 0 01-.948.592 5.07 5.07 0 01-.998.334c-.32.065-.64.09-.948.09zm-3.035-.514h3.047c.269 0 .55-.026.845-.09.294-.064.589-.154.883-.296a3.65 3.65 0 00.845-.527c.27-.206.5-.463.704-.771a3.55 3.55 0 00.487-1.042c.115-.386.18-.848.18-1.337 0-.501-.065-.951-.18-1.337a3.712 3.712 0 00-.487-1.042 3.678 3.678 0 00-.704-.771 4.199 4.199 0 00-.845-.527 4.752 4.752 0 00-.883-.296 3.94 3.94 0 00-.845-.09h-3.047v8.126zm2.701-.424h-2.202V8.874h2.202c.512 0 .999.064 1.447.206.448.141.858.36 1.19.655.334.296.602.682.794 1.132.192.45.282 1.003.282 1.62 0 .63-.102 1.17-.282 1.62-.192.45-.46.836-.793 1.131-.333.296-.73.515-1.191.656a4.803 4.803 0 01-1.447.219zm-1.69-.515h1.69c.461 0 .897-.064 1.293-.18a2.71 2.71 0 00.999-.553c.282-.244.5-.565.666-.951.166-.386.243-.861.243-1.427 0-.553-.077-1.029-.243-1.427-.167-.386-.384-.708-.666-.952a2.71 2.71 0 00-.999-.553 4.623 4.623 0 00-1.293-.18h-1.69v6.223zM90.11 8.18h.96l3.649 8.627h-1.19l-.871-2.121h-4.29l-.882 2.12h-1.153L90.11 8.18zm.46 1.311h-.025l-1.78 4.243h3.509L90.57 9.491z" fill="#242428"/><path d="M95.103 17.051h-1.741l-.87-2.121h-3.957l-.883 2.121h-1.716l4.007-9.141h1.294l3.866 9.141zm-1.408-.514h.627l-3.431-8.113h-.627l-3.56 8.113h.59l.883-2.122h4.634l.884 2.122zm-1.05-2.546h-4.276l1.997-4.757h.371l1.908 4.757zm-3.495-.514h2.74l-1.332-3.33-1.408 3.33zm7.617-5.297h1.28l4.968 7.161h.026V8.18h1.024v8.627h-1.28l-4.968-7.162h-.025v7.162h-1.025V8.18z" fill="#242428"/><path d="M104.321 17.051h-1.677l-4.61-6.634v6.634H96.5V7.91h1.677l4.609 6.634V7.91h1.536v9.141zm-1.408-.514h.896V8.424h-.512v7.174h-.41L97.92 8.437h-.897v8.113h.513V9.388h.41l4.967 7.149zm10.216-6.583a2.365 2.365 0 00-.96-.784 2.761 2.761 0 00-1.191-.257c-.473 0-.921.103-1.318.296a3.453 3.453 0 00-1.037.784 3.641 3.641 0 00-.679 1.144 3.785 3.785 0 00-.243 1.363c0 .502.077.977.243 1.402.166.437.384.81.679 1.13.281.322.627.58 1.037.76.397.192.845.282 1.331.282.525 0 .999-.103 1.408-.308.41-.206.769-.502 1.076-.9l.768.643a3.6 3.6 0 01-1.396 1.144c-.55.244-1.165.36-1.843.36a4.32 4.32 0 01-1.728-.347 4.183 4.183 0 01-1.383-.939 4.154 4.154 0 01-.922-1.427 4.9 4.9 0 01-.333-1.813c0-.63.103-1.221.32-1.774a4.303 4.303 0 01.909-1.44 4.063 4.063 0 011.383-.964 4.361 4.361 0 011.754-.348c.576 0 1.139.103 1.677.322.538.206.986.553 1.357 1.041l-.909.63z" fill="#242428"/><path d="M110.978 17.283a4.547 4.547 0 01-3.29-1.363 4.671 4.671 0 01-.973-1.517 5.16 5.16 0 01-.358-1.916 5.3 5.3 0 01.333-1.877c.23-.579.55-1.093.96-1.517a4.513 4.513 0 011.459-1.016 4.653 4.653 0 011.857-.373c.614 0 1.203.116 1.766.334a3.362 3.362 0 011.46 1.119l.154.206-1.306.951-.154-.206a2.267 2.267 0 00-.858-.707 2.667 2.667 0 00-2.291.026c-.372.18-.692.424-.961.72a3.19 3.19 0 00-.627 1.067 3.55 3.55 0 00-.23 1.273c0 .476.076.913.23 1.311.154.399.359.759.627 1.055.256.296.577.527.948.694a2.86 2.86 0 001.216.257c.487 0 .922-.09 1.293-.283.371-.193.717-.463.999-.823l.166-.205 1.152.977-.14.193c-.41.553-.922.964-1.498 1.221-.551.257-1.217.399-1.934.399zm0-9.065c-.601 0-1.152.116-1.651.335a4.237 4.237 0 00-1.306.9 4.086 4.086 0 00-.845 1.35 4.524 4.524 0 00-.307 1.684c0 .617.102 1.196.32 1.723.205.514.499.977.87 1.35.372.373.807.668 1.306.887.5.219 1.05.322 1.626.322.653 0 1.229-.116 1.741-.348.436-.192.82-.488 1.153-.874l-.384-.321a3.337 3.337 0 01-.999.758 3.44 3.44 0 01-1.524.335 3.28 3.28 0 01-1.433-.31 3.392 3.392 0 01-1.114-.822 3.666 3.666 0 01-.717-1.209 4.381 4.381 0 010-2.944c.166-.463.422-.874.73-1.221a3.618 3.618 0 011.113-.849 3.294 3.294 0 011.421-.321c.449 0 .884.09 1.294.283.345.154.64.385.896.668l.473-.347a2.8 2.8 0 00-1.075-.746 4.747 4.747 0 00-1.588-.283zm5.582-.038h5.403v.951h-4.378v2.7h4.084v.952h-4.084v3.072h4.596v.952h-5.621V8.18z" fill="#242428"/><path d="M122.424 17.051h-6.132V7.91h5.914v1.465h-4.378v2.186h4.084v1.466h-4.084v2.571h4.596v1.453zm-5.608-.514h5.109v-.424h-4.596v-3.588h4.084v-.437h-4.084V8.874h4.378v-.437h-4.891v8.1zM135.964 8.9h-2.842v7.676h-1.024V8.9h-2.842v-.939h6.696V8.9h.012z" fill="#242428"/><path d="M133.379 16.833h-1.537V9.157H129V7.704h7.208V9.17h-2.842v7.663h.013zm-1.012-.514h.512V8.643h2.842v-.425h-6.183v.438h2.842v7.662h-.013zm4.532-8.358h1.152l2.638 7.085h.025l2.727-7.085h1.076l-3.355 8.615h-.985l-3.278-8.615z" fill="#242428"/><path d="M141.342 16.833h-1.332l-3.482-9.129h1.703l2.483 6.66 2.561-6.66h1.626l-3.559 9.129zm-.986-.514h.627l3.162-8.113h-.524l-2.727 7.084h-.372l-2.65-7.072h-.602l3.086 8.1z" fill="#242428"/><path d="M7 6v13l9-6.5L7 6z" fill="#FB4C4C"/><path stroke="#242428" d="M.5.5h151v24H.5z"/></svg>