<svg width="56" height="16" fill="none" xmlns="http://www.w3.org/2000/svg"><g clip-path="url(#clip0)"><path d="M20.87 3.568h-3.09a.428.428 0 00-.423.364l-1.25 7.972a.26.26 0 00.148.275c.033.016.07.024.107.024h1.475a.428.428 0 00.424-.365l.337-2.15a.433.433 0 01.424-.365h.977c2.035 0 3.209-.991 3.516-2.955.138-.859.005-1.534-.394-2.007-.44-.519-1.218-.793-2.252-.793zm.356 2.911c-.17 1.116-1.016 1.116-1.835 1.116h-.466l.327-2.084a.26.26 0 01.255-.218h.213c.558 0 1.084 0 1.356.32.162.19.212.474.15.866zm8.876-.036h-1.48a.256.256 0 00-.253.219l-.066.416-.103-.15c-.32-.468-1.035-.625-1.747-.625-1.635 0-3.03 1.246-3.302 2.994-.142.872.06 1.705.55 2.287.451.534 1.096.757 1.863.757 1.317 0 2.048-.852 2.048-.852l-.066.413a.261.261 0 00.146.276.25.25 0 00.107.024h1.333a.428.428 0 00.424-.365l.8-5.095a.26.26 0 00-.147-.275.255.255 0 00-.107-.024zM28.04 9.34c-.142.85-.813 1.422-1.668 1.422-.43 0-.773-.139-.994-.402-.218-.26-.301-.632-.232-1.045.133-.844.815-1.433 1.658-1.433.42 0 .761.14.986.405.225.268.315.642.25 1.053zm9.939-2.897h-1.486a.428.428 0 00-.356.19l-2.05 3.039-.869-2.92a.433.433 0 00-.412-.309h-1.46a.256.256 0 00-.255.221.261.261 0 00.01.122l1.638 4.835-1.54 2.187a.26.26 0 00.21.41h1.485a.426.426 0 00.353-.186L38.19 6.85a.26.26 0 00-.078-.37.256.256 0 00-.133-.037z" fill="#253B80"/><path d="M42.9 3.568h-3.09a.427.427 0 00-.423.364l-1.25 7.972a.26.26 0 00.255.299h1.585a.299.299 0 00.296-.256l.355-2.26a.433.433 0 01.423-.364h.978c2.034 0 3.208-.991 3.515-2.955.139-.859.006-1.534-.394-2.007-.438-.519-1.216-.793-2.25-.793zm.356 2.911c-.168 1.116-1.015 1.116-1.834 1.116h-.466l.327-2.084a.259.259 0 01.254-.218h.214c.557 0 1.084 0 1.356.32.162.19.21.474.15.866zm8.876-.036h-1.478a.255.255 0 00-.254.219l-.066.416-.104-.15c-.32-.468-1.033-.625-1.746-.625-1.635 0-3.03 1.246-3.302 2.994-.14.872.06 1.705.55 2.287.452.534 1.096.757 1.864.757 1.317 0 2.047-.852 2.047-.852l-.066.413a.26.26 0 00.147.277c.033.015.07.023.108.023h1.331a.428.428 0 00.424-.365l.8-5.095a.263.263 0 00-.148-.275.256.256 0 00-.107-.024zM50.07 9.34c-.142.85-.813 1.422-1.669 1.422-.428 0-.772-.139-.993-.402-.218-.26-.3-.632-.232-1.045.134-.844.815-1.433 1.657-1.433.42 0 .762.14.987.405.226.268.316.642.25 1.053zm3.805-5.554l-1.267 8.118a.26.26 0 00.253.299h1.275a.43.43 0 00.424-.365l1.25-7.971a.26.26 0 00-.146-.276.256.256 0 00-.108-.024H54.13a.257.257 0 00-.254.22z" fill="#179BD7"/><path d="M3.281 13.752l.237-1.51-.527-.013H.48L2.225 1.088a.144.144 0 01.142-.122h4.236c1.406 0 2.377.295 2.884.876.237.273.388.558.462.872.076.329.078.722.003 1.201l-.006.035v.308l.238.135c.181.093.344.218.48.37.204.232.335.529.391.88.057.362.038.792-.056 1.278-.108.56-.283 1.048-.52 1.447a2.97 2.97 0 01-.824.91 3.334 3.334 0 01-1.11.503c-.41.108-.876.162-1.387.162h-.33a.996.996 0 00-.98.842l-.025.136-.418 2.661-.019.098c-.005.03-.013.046-.026.057a.07.07 0 01-.043.016H3.28z" fill="#253B80"/><path d="M10.409 3.985a7.53 7.53 0 01-.043.25c-.56 2.887-2.47 3.884-4.911 3.884H4.212a.605.605 0 00-.597.515l-.636 4.061-.18 1.152a.322.322 0 00.18.34c.042.02.088.03.134.03h2.204c.26 0 .483-.191.524-.45l.021-.113.415-2.65.027-.146a.53.53 0 01.524-.451h.33c2.135 0 3.807-.873 4.296-3.398.204-1.055.098-1.936-.442-2.556a2.11 2.11 0 00-.603-.468z" fill="#179BD7"/><path d="M9.824 3.75a4.381 4.381 0 00-.543-.121 6.86 6.86 0 00-1.096-.08h-3.32a.527.527 0 00-.523.45l-.707 4.503-.02.132a.608.608 0 01.597-.515h1.243c2.44 0 4.352-.998 4.91-3.884.017-.086.031-.169.044-.25a2.966 2.966 0 00-.585-.235z" fill="#222D65"/><path d="M4.342 4a.532.532 0 01.523-.45h3.32c.394 0 .761.025 1.096.08.227.035.45.09.669.16.165.055.318.12.46.195.165-1.067-.002-1.793-.575-2.45C9.203.81 8.063.5 6.604.5H2.367a.607.607 0 00-.598.515L.005 12.272a.368.368 0 00.206.39c.048.022.1.033.153.033h2.615l.657-4.193L4.342 4z" fill="#253B80"/></g><defs><clipPath id="clip0"><path fill="#fff" transform="translate(0 .5)" d="M0 0h56v15H0z"/></clipPath></defs></svg>