<svg width="29" height="10" fill="none" xmlns="http://www.w3.org/2000/svg"><path d="M14.88 3.377c-.015 1.254 1.123 1.954 1.981 2.37.881.426 1.177.7 1.174 1.082-.007.584-.703.842-1.355.852-1.136.017-1.797-.306-2.323-.55l-.41 1.907c.528.242 1.504.453 2.516.462 2.376 0 3.931-1.168 3.94-2.978.009-2.297-3.193-2.424-3.171-3.451.007-.311.306-.644.96-.728.324-.043 1.217-.076 2.23.389L20.82.887A6.09 6.09 0 0018.703.5c-2.236 0-3.81 1.183-3.822 2.877zM24.643.66c-.434 0-.8.252-.963.638l-3.394 8.067h2.374l.473-1.3h2.901l.274 1.3H28.4L26.574.66h-1.932zm.332 2.352l.685 3.269h-1.877l1.192-3.27zM12.002.659L10.13 9.364h2.263L14.263.66h-2.26zm-3.347 0L6.3 6.584l-.953-5.038C5.235.984 4.794.66 4.304.66H.454L.4.912c.79.17 1.688.446 2.232.74.333.18.428.338.538.765l1.804 6.947h2.391L11.031.66H8.655" fill="#254AA5"/></svg>